<?xml version="1.0" encoding="utf-8"?>
<!-- Generator: Adobe Illustrator 21.0.0, SVG Export Plug-In . SVG Version: 6.00 Build 0)  -->
<svg version="1.1" id="Layer_1" xmlns="http://www.w3.org/2000/svg" xmlns:xlink="http://www.w3.org/1999/xlink" x="0px" y="0px"
	 viewBox="0 0 90 90" style="enable-background:new 0 0 90 90;" xml:space="preserve">
<path d="M78,31l-3.1,13.7c-1.5,4.8-7.7,5.1-9.5,5.1l-0.5,0l-30.5,0L29.6,31H78z M64.7,59.5c5.4,0.3,16.3-1.9,19.4-12.2L90,21.6H22.5
	l-0.8-3.2C18.9,9.1,7.5,9.5,1.8,11c-1.3,0.4-2.1,1.7-1.8,3c0.4,1.3,1.7,2.1,3,1.8c0.1,0,11.7-3,13.8,3.9l9.8,39.8L64.7,59.5z
	 M83.8,26.5L79.3,46c-2.7,8.9-13.9,8.6-14.5,8.5l-34.1,0l-6.9-28.1H83.8z M43.4,71.2c0-4.8-3.9-8.6-8.6-8.6c-4.8,0-8.6,3.9-8.6,8.6
	c0,4.8,3.9,8.6,8.6,8.6C39.6,79.8,43.4,75.9,43.4,71.2z M38.6,71.2c0,2.1-1.7,3.7-3.7,3.7c-2.1,0-3.7-1.7-3.7-3.7
	c0-2.1,1.7-3.7,3.7-3.7C36.9,67.4,38.6,69.1,38.6,71.2z M75.4,71.2c0-4.8-3.9-8.6-8.6-8.6c-4.8,0-8.6,3.9-8.6,8.6
	c0,4.8,3.9,8.6,8.6,8.6C71.6,79.8,75.4,75.9,75.4,71.2z M70.5,71.2c0,2.1-1.7,3.7-3.7,3.7c-2.1,0-3.7-1.7-3.7-3.7
	c0-2.1,1.7-3.7,3.7-3.7C68.9,67.4,70.5,69.1,70.5,71.2z"/>
</svg>
