<?xml version="1.0" encoding="utf-8"?>
<!-- Generator: Adobe Illustrator 21.0.0, SVG Export Plug-In . SVG Version: 6.00 Build 0)  -->
<svg version="1.1" id="Layer_1" xmlns="http://www.w3.org/2000/svg" xmlns:xlink="http://www.w3.org/1999/xlink" x="0px" y="0px"
	 viewBox="0 0 90 90" style="enable-background:new 0 0 90 90;" xml:space="preserve">
<path d="M85,0H5C2.2,0,0,2.2,0,5V85c0,2.7,2.2,5,5,5h43.1V55.1H36.3V41.6h11.7v-10c0-11.6,7.1-18,17.5-18c5,0,9.2,0.4,10.5,0.5v12.1
	l-7.2,0c-5.6,0-6.7,2.7-6.7,6.6v8.7h13.5l-1.8,13.6H62.1V90H85v0c2.7,0,5-2.2,5-5V5C90,2.2,87.8,0,85,0z"/>
</svg>
