<?xml version="1.0" encoding="utf-8"?>
<!-- Generator: Adobe Illustrator 21.0.0, SVG Export Plug-In . SVG Version: 6.00 Build 0)  -->
<svg version="1.1" id="Layer_1" xmlns="http://www.w3.org/2000/svg" xmlns:xlink="http://www.w3.org/1999/xlink" x="0px" y="0px"
	 viewBox="0 0 90 90" style="enable-background:new 0 0 90 90;" xml:space="preserve">
<path d="M87.5,0h-85C1.1,0,0,1.1,0,2.5v85C0,88.9,1.1,90,2.5,90h85c1.4,0,2.5-1.1,2.5-2.5v-85C90,1.1,88.9,0,87.5,0z M36,60.8
	c-8.7,0-15.8-7-15.8-15.8c0-8.7,7-15.7,15.8-15.7c4.3,0,7.8,1.6,10.6,4.1l-4.3,4.1c-1.2-1.1-3.2-2.4-6.3-2.4c-5.4,0-9.8,4.5-9.8,9.9
	s4.4,9.9,9.8,9.9c6.2,0,8.6-4.5,8.9-6.8H36v-5.4h14.9c0.1,0.8,0.2,1.6,0.2,2.6C51.1,54.4,45.1,60.8,36,60.8z M69.7,47.3h-4.5v4.5
	h-4.5v-4.5h-4.5v-4.5h4.5v-4.5h4.5v4.5h4.5V47.3z"/>
</svg>
