<?xml version="1.0" standalone="no"?> 
<!DOCTYPE svg PUBLIC "-//W3C//DTD SVG 1.1//EN" "http://www.w3.org/Graphics/SVG/1.1/DTD/svg11.dtd" >
<svg xmlns="http://www.w3.org/2000/svg">
<defs>
  <font id="jurgita-icons" horiz-adv-x="303.5">
    <font-face font-family="jurgita-icons"
      units-per-em="90" ascent="90"
      descent="0" />
    <missing-glyph horiz-adv-x="0" />
    <glyph glyph-name="J"
      unicode="&#xEA01;"
      horiz-adv-x="90" d=" M0 90V0H90V90H0zM54.5 74.2C53.8 74.2 53.5 74.1 52.8 74C51.2 73.7 50.7 72.7 50.6 70.6C50.5 68.7 50.5 67 50.5 57.9V46.8C50.5 44.2 50.7 41.4 50.7 38.4C50.7 35 50.5 31.2 49.3 27.8C48 24.2 44.9 20 39.1 16.5C38.3 16 37.4 15.5 36.1 14.9C35.7 14.7 35.2 14.5 34.9 14.5C34.7 14.5 34.4 14.7 34.4 15C34.4 15.3 34.7 15.5 35.7 16.1C36.5 16.5 37.4 17.2 38.6 18.4C43.1 23 43.1 29 43.1 40.7V58C43.1 67.1 43.1 68.8 43 70.7C42.9 72.7 42.4 73.7 40.4 74.1C39.9 74.2 38.9 74.3 38.1 74.3C37.4 74.3 37.1 74.4 37.1 74.8C37.1 75.2 37.5 75.3 38.4 75.3C41.6 75.3 45.3 75.1 46.9 75.1C48.3 75.1 52.1 75.3 54.4 75.3C55.2 75.3 55.7 75.2 55.7 74.8C55.6 74.4 55.3 74.2 54.5 74.2z" />
    <glyph glyph-name="arrow-down"
      unicode="&#xEA02;"
      horiz-adv-x="90" d=" M45 22.5L0 67.5L9.3 65.9L45 35.6L80.7 65.9L90 67.5z" />
    <glyph glyph-name="arrow-left"
      unicode="&#xEA03;"
      horiz-adv-x="90" d=" M22.5 45L67.5 90L65.9 80.7L35.6 45L65.9 9.3L67.5 0z" />
    <glyph glyph-name="arrow-right"
      unicode="&#xEA04;"
      horiz-adv-x="90" d=" M67.5 45L22.5 0L24.1 9.3L54.4 45L24.1 80.7L22.5 90z" />
    <glyph glyph-name="audio-off"
      unicode="&#xEA05;"
      horiz-adv-x="90" d=" M74.5 45L90 29.5L84.3 23.8L68.8 39.3L53.3 23.8L47.6 29.5L63.1 45L47.6 60.5L53.3 66.2L68.8 50.7L84.3 66.2L90 60.5L74.5 45zM0 57V33H12.6L38 7.6V82.4L12.7 57H0z" />
    <glyph glyph-name="audio"
      unicode="&#xEA06;"
      horiz-adv-x="90" d=" M50.7 61.6H59V28.5H50.7V61.6zM66.2 18.5H74.5V71.6H66.2V18.5zM81.7 89.8V0.2H90V89.8H81.7zM0 57.3V32.8H12.9L38.9 6.8V83.3L12.9 57.3H0z" />
    <glyph glyph-name="cart-full"
      unicode="&#xEA07;"
      horiz-adv-x="90" d=" M78 59L74.9 45.3C73.4 40.5 67.2 40.2 65.4 40.2L64.9 40.2L34.4 40.2L29.6 59H78zM64.7 30.5C70.1 30.2 81 32.4 84.1 42.7L90 68.4H22.5L21.7 71.6C18.9 80.9 7.5 80.5 1.8 79C0.5 78.6 -0.3 77.3 0 76C0.4 74.7 1.7 73.9 3 74.2C3.1 74.2 14.7 77.2 16.8 70.3L26.6 30.5L64.7 30.5zM83.8 63.5L79.3 44C76.6 35.1 65.4 35.4 64.8 35.5L30.7 35.5L23.8 63.6H83.8zM43.4 18.8C43.4 23.6 39.5 27.4 34.8 27.4C30 27.4 26.2 23.5 26.2 18.8C26.2 14 30.1 10.2 34.8 10.2C39.6 10.2 43.4 14.1 43.4 18.8zM38.6 18.8C38.6 16.7 36.9 15.1 34.9 15.1C32.8 15.1 31.2 16.8 31.2 18.8C31.2 20.9 32.9 22.5 34.9 22.5C36.9 22.6 38.6 20.9 38.6 18.8zM75.4 18.8C75.4 23.6 71.5 27.4 66.8 27.4C62 27.4 58.2 23.5 58.2 18.8C58.2 14 62.1 10.2 66.8 10.2C71.6 10.2 75.4 14.1 75.4 18.8zM70.5 18.8C70.5 16.7 68.8 15.1 66.8 15.1C64.7 15.1 63.1 16.8 63.1 18.8C63.1 20.9 64.8 22.5 66.8 22.5C68.9 22.6 70.5 20.9 70.5 18.8z" />
    <glyph glyph-name="cart"
      unicode="&#xEA08;"
      horiz-adv-x="90" d=" M26.8 30.5L17 70.3C14.9 77.2 3.3 74.2 3.2 74.2C1.9 73.9 0.5 74.6 0.2 76C-0.2 77.3 0.6 78.7 2 79C7.6 80.5 19 80.9 21.9 71.6L22.7 68.4H90L84.1 42.7C81 32.4 70.1 30.2 64.7 30.5L26.8 30.5zM23.7 63.5L30.6 35.4L64.7 35.4C65.3 35.4 76.5 35 79.2 43.9L83.7 63.4H23.7zM34.8 10.2C30 10.2 26.2 14.1 26.2 18.8C26.2 23.6 30.1 27.4 34.8 27.4C39.6 27.4 43.4 23.5 43.4 18.8C43.4 14.1 39.6 10.2 34.8 10.2zM34.8 22.6C32.7 22.6 31.1 20.9 31.1 18.9C31.1 16.8 32.8 15.2 34.8 15.2C36.9 15.2 38.5 16.9 38.5 18.9C38.6 20.9 36.9 22.6 34.8 22.6zM66.8 10.2C62 10.2 58.2 14.1 58.2 18.8C58.2 23.6 62.1 27.4 66.8 27.4C71.6 27.4 75.4 23.5 75.4 18.8C75.4 14.1 71.6 10.2 66.8 10.2zM66.8 22.6C64.7 22.6 63.1 20.9 63.1 18.9C63.1 16.8 64.8 15.2 66.8 15.2C68.9 15.2 70.5 16.9 70.5 18.9C70.5 20.9 68.9 22.6 66.8 22.6z" />
    <glyph glyph-name="check"
      unicode="&#xEA09;"
      horiz-adv-x="90" d=" M31.7 10.8L0 42.5L10.1 52.6L31.7 31.1L79.9 79.2L90 69.1z" />
    <glyph glyph-name="close"
      unicode="&#xEA0A;"
      horiz-adv-x="90" d=" M61.4 45L90 16.4L73.6 0L45 28.6L16.4 0L0 16.4L28.6 45L0 73.6L16.4 90L45 61.4L73.6 90L90 73.6L61.4 45z" />
    <glyph glyph-name="credits"
      unicode="&#xEA0B;"
      horiz-adv-x="337.6390605686032" d=" M126.1557478368356 39.4932014833127C126.1557478368356 37.9357231149567 125.9332509270705 36.6007416563659 125.3770086526576 35.3770086526576C124.8207663782448 34.1532756489493 124.1532756489493 33.1520395550062 123.2632880098888 32.2620519159456C122.3733003708282 31.4833127317676 121.2608158220025 30.8158220024722 119.9258343634116 30.3708281829419C118.5908529048208 29.9258343634116 117.2558714462299 29.7033374536465 115.8096415327565 29.7033374536465H101.4585908529048V62.8553770086527H115.1421508034611C117.3671199011125 62.8553770086527 119.2583436341162 62.4103831891224 120.9270704573548 61.6316440049444C122.4845488257108 60.8529048207664 123.708281829419 59.7404202719407 124.487021013597 58.2941903584673C125.265760197775 56.8479604449938 125.7107540173053 55.1792336217553 125.7107540173053 53.2880098887515C125.7107540173053 51.7305315203956 125.265760197775 50.2843016069221 124.487021013597 49.283065512979C123.708281829419 48.1705809641533 122.929542645241 47.3918417799753 122.0395550061805 46.8355995055624C123.1520395550062 46.168108776267 124.0420271940668 45.2781211372064 124.9320148331273 44.2768850432633C125.8220024721879 43.053152039555 126.1557478368356 41.495673671199 126.1557478368356 39.4932014833127zM117.5896168108776 52.8430160692213C117.5896168108776 53.6217552533993 117.3671199011125 54.1779975278121 116.9221260815822 54.734239802225C116.4771322620519 55.2904820766378 115.6983930778739 55.512978986403 114.6971569839308 55.512978986403H109.6909765142151V50.1730531520396H114.6971569839308C115.6983930778739 50.1730531520396 116.4771322620519 50.3955500618047 116.9221260815822 50.9517923362176C117.3671199011125 51.5080346106304 117.5896168108776 52.1755253399258 117.5896168108776 52.8430160692213zM118.0346106304079 39.938195302843C118.0346106304079 40.716934487021 117.8121137206428 41.3844252163164 117.3671199011125 41.9406674907293C116.9221260815822 42.4969097651422 116.1433868974042 42.7194066749073 115.1421508034611 42.7194066749073H109.6909765142151V36.9344870210136H115.1421508034611C116.1433868974042 36.9344870210136 116.9221260815822 37.2682323856613 117.3671199011125 37.8244746600742C117.8121137206428 38.4919653893696 118.0346106304079 39.159456118665 118.0346106304079 39.938195302843z M155.0803461063041 29.8145859085291H132.6081582200247V62.8553770086527H155.0803461063041V55.6242274412855H140.7292954264524V50.061804697157H152.9666254635352V42.8306551297899H140.7292954264524V37.0457354758962H155.0803461063041V29.8145859085291z M184.5611866501854 39.938195302843C184.5611866501854 37.8244746600742 184.0049443757726 35.9332509270705 182.8924598269468 34.3757725587145C181.7799752781211 32.8182941903585 180.2224969097652 31.5945611866502 178.2200247218789 30.8158220024722C176.3288009888752 30.0370828182942 174.1038318912238 29.5920889987639 171.7676143386897 29.5920889987639C168.9864029666255 29.5920889987639 166.6501854140915 29.9258343634116 164.6477132262052 30.593325092707C162.6452410383189 31.2608158220025 160.8652657601978 32.3733003708282 159.1965389369592 33.9307787391842L164.42521631644 39.159456118665C165.203955500618 38.380716934487 166.3164400494437 37.7132262051916 167.6514215080346 37.3794808405439S170.3213844252163 36.823238566131 171.7676143386897 36.823238566131C174.8825710754017 36.823238566131 176.5512978986403 37.8244746600742 176.5512978986403 39.8269468479605C176.5512978986403 40.716934487021 176.3288009888752 41.2731767614339 175.8838071693449 41.8294190358467C175.4388133498146 42.274412855377 174.7713226205191 42.6081582200247 173.6588380716934 42.7194066749073L169.6538936959209 43.2756489493201C166.761433868974 43.7206427688504 164.5364647713226 44.610630407911 162.9789864029666 46.168108776267C161.4215080346106 47.725587144623 160.7540173053152 49.9505562422744 160.7540173053152 52.8430160692213C160.7540173053152 54.8454882571075 161.1990111248455 56.6254635352287 162.2002472187886 58.1829419035847C163.2014833127318 59.7404202719407 164.5364647713226 60.964153275649 166.4276885043264 61.8541409147095C168.2076637824475 62.7441285537701 170.4326328800989 63.1891223733004 172.8800988875155 63.1891223733004C175.3275648949321 63.1891223733004 177.4412855377009 62.8553770086527 179.221260815822 62.2991347342398C181.0012360939431 61.6316440049444 182.6699629171817 60.6304079110012 184.0049443757726 59.2954264524104L178.8875154511743 54.1779975278121C177.9975278121137 55.0679851668727 177.1075401730532 55.512978986403 176.10630407911 55.7354758961681C175.1050679851669 55.9579728059332 173.9925834363412 56.0692212608158 172.5463535228678 56.0692212608158C171.211372064277 56.0692212608158 170.2101359703338 55.7354758961681 169.5426452410384 55.1792336217553C168.875154511743 54.5117428924598 168.5414091470952 53.8442521631644 168.5414091470952 53.0655129789864C168.5414091470952 52.5092707045735 168.7639060568604 51.9530284301607 169.2088998763907 51.5080346106304C169.7651421508035 50.9517923362176 170.4326328800989 50.6180469715698 171.4338689740421 50.5067985166873L175.4388133498146 49.9505562422744C178.3312731767615 49.5055624227441 180.5562422744129 48.6155747836836 182.0024721878863 47.1693448702101C182.8924598269469 46.3906056860321 183.4487021013598 45.2781211372064 183.89369592089 44.1656365883807C184.4499381953029 42.9419035846724 184.5611866501854 41.495673671199 184.5611866501854 39.938195302843z M215.265760197775 52.1755253399258C215.265760197775 50.2843016069221 214.8207663782447 48.6155747836836 213.9307787391842 46.946847960445C213.0407911001236 45.2781211372064 211.7058096415328 44.0543881334981 210.0370828182942 43.053152039555C208.3683559950556 42.0519159456119 206.2546353522868 41.6069221260816 203.9184177997528 41.6069221260816H198.9122373300371V29.8145859085291H190.7911001236094V62.8553770086527H203.9184177997528C206.2546353522868 62.8553770086527 208.3683559950556 62.4103831891224 210.0370828182942 61.4091470951792C211.7058096415328 60.4079110012361 213.0407911001236 59.0729295426452 213.9307787391842 57.5154511742893C214.8207663782447 55.8467243510507 215.265760197775 54.0667490729295 215.265760197775 52.1755253399258zM207.1446229913473 52.1755253399258C207.1446229913473 52.7317676143387 207.0333745364648 53.2880098887515 206.699629171817 53.8442521631644C206.4771322620519 54.4004944375773 206.0321384425216 54.734239802225 205.4758961681088 55.0679851668727C204.9196538936959 55.4017305315204 204.363411619283 55.512978986403 203.5846724351051 55.512978986403H198.9122373300371V48.8380716934487H203.5846724351051C204.2521631644005 48.8380716934487 204.9196538936959 48.9493201483313 205.4758961681088 49.283065512979C206.0321384425216 49.6168108776267 206.4771322620519 49.9505562422744 206.699629171817 50.5067985166873C207.0333745364648 51.0630407911001 207.1446229913473 51.619283065513 207.1446229913473 52.1755253399258z M244.7466007416564 46.2793572311496V45.1668726823239C244.7466007416564 43.2756489493202 244.6353522867738 41.7181705809642 244.5241038318912 40.3831891223733C244.4128553770087 39.0482076637825 244.079110012361 37.7132262051916 243.6341161928307 36.4894932014833C243.1891223733004 35.265760197775 242.4103831891224 34.1532756489493 241.4091470951792 33.1520395550062C240.185414091471 31.9283065512979 238.8504326328801 31.0383189122373 237.4042027194067 30.3708281829419C235.9579728059332 29.7033374536465 234.1779975278121 29.4808405438814 232.1755253399259 29.4808405438814C230.840543881335 29.4808405438814 229.6168108776267 29.5920889987639 228.504326328801 29.9258343634116C227.3918417799753 30.1483312731768 226.3906056860322 30.5933250927071 225.5006180469716 31.1495673671199C224.610630407911 31.7058096415328 223.7206427688505 32.3733003708282 222.9419035846724 33.2632880098888C221.495673671199 34.7095179233622 220.6056860321384 36.3782447466008 220.1606922126082 38.2694684796045C219.7156983930779 40.1606922126082 219.6044499381953 42.4969097651422 219.6044499381953 45.2781211372064V46.3906056860321V47.5030902348579C219.6044499381953 50.3955500618047 219.8269468479604 52.7317676143387 220.1606922126082 54.5117428924598C220.6056860321384 56.4029666254635 221.495673671199 58.0716934487021 222.9419035846724 59.5179233621755C224.1656365883807 60.7416563658838 225.5006180469716 61.742892459827 227.0580964153276 62.2991347342398S230.2843016069221 63.1891223733004 232.1755253399258 63.1891223733004C234.1779975278121 63.1891223733004 235.8467243510507 62.8553770086527 237.4042027194067 62.2991347342398C238.8504326328801 61.742892459827 240.1854140914709 60.7416563658838 241.4091470951792 59.5179233621755C242.4103831891224 58.5166872682324 243.1891223733003 57.4042027194067 243.6341161928306 56.1804697156984C244.0791100123609 54.9567367119901 244.4128553770086 53.6217552533993 244.5241038318912 52.2867737948084C244.6353522867738 50.9517923362176 244.7466007416563 49.3943139678616 244.7466007416563 47.5030902348579V46.2793572311496zM236.6254635352287 46.2793572311496C236.6254635352287 49.0605686032139 236.5142150803461 51.0630407911001 236.291718170581 52.0642768850433C236.0692212608158 53.0655129789864 235.8467243510507 53.8442521631644 235.4017305315204 54.4004944375773C235.0679851668726 54.8454882571076 234.6229913473424 55.1792336217553 234.0667490729295 55.4017305315204C233.5105067985167 55.6242274412856 232.8430160692212 55.8467243510507 232.1755253399258 55.8467243510507C231.5080346106304 55.8467243510507 230.840543881335 55.7354758961681 230.2843016069221 55.4017305315204C229.7280593325093 55.1792336217553 229.283065512979 54.734239802225 228.9493201483313 54.4004944375773C228.7268232385662 54.0667490729296 228.504326328801 53.6217552533993 228.2818294190359 53.0655129789864C228.0593325092707 52.5092707045736 227.9480840543881 51.7305315203956 227.8368355995056 50.7292954264524C227.725587144623 49.7280593325093 227.725587144623 48.1705809641533 227.725587144623 46.2793572311496C227.725587144623 44.3881334981459 227.725587144623 42.8306551297899 227.8368355995056 41.8294190358467C227.9480840543881 40.8281829419036 228.0593325092707 40.0494437577256 228.2818294190359 39.4932014833127C228.504326328801 39.0482076637825 228.7268232385662 38.6032138442522 228.9493201483313 38.2694684796045C229.7280593325093 37.2682323856613 230.840543881335 36.823238566131 232.1755253399259 36.823238566131C233.6217552533993 36.823238566131 234.6229913473424 37.3794808405439 235.4017305315204 38.2694684796045C235.8467243510507 38.8257107540173 236.1804697156984 39.6044499381953 236.291718170581 40.6056860321385C236.5142150803461 41.6069221260816 236.6254635352287 43.4981458590853 236.6254635352287 46.2793572311496z M278.8998763906057 29.8145859085291H269.4437577255871L261.7676143386898 43.3868974042027L258.9864029666254 40.1606922126082V29.814585908529H250.8652657601978V62.8553770086527H258.9864029666254V51.1742892459827L268.5537700865266 62.8553770086527H278.4548825710754L267.1075401730531 49.5055624227441L278.8998763906057 29.8145859085291z M305.5995055624228 29.8145859085291H283.1273176761434V62.8553770086527H305.5995055624228V55.6242274412855H291.2484548825711V50.061804697157H303.4857849196539V42.8306551297899H291.2484548825711V37.0457354758962H305.5995055624228V29.8145859085291z M337.6390605686032 29.8145859085291H330.5191594561187L319.9505562422745 46.5018541409147V29.8145859085291H311.8294190358468V62.8553770086527H318.9493201483313L329.5179233621755 46.168108776267V62.8553770086527H337.6390605686032V29.8145859085291z M76.761433868974 76.8726823238566C59.1841779975278 94.4499381953029 30.7045735475896 94.4499381953029 13.1273176761434 76.8726823238566L13.1273176761434 76.8726823238566L13.1273176761434 76.8726823238566C13.1273176761434 76.8726823238566 13.1273176761434 76.8726823238566 13.1273176761434 76.8726823238566L12.5710754017305 76.3164400494438V76.3164400494438C4.4499381953028 67.8615574783684 0 56.7367119901113 0 45.0556242274413C0 33.0407911001236 4.672435105068 21.6934487021014 13.1273176761434 13.238566131026C21.5822002472188 4.7836835599506 32.929542645241 0.1112484548826 44.9443757725587 0.1112484548826L44.9443757725587 0.1112484548826C56.9592088998764 0.1112484548826 68.1953028430161 4.7836835599506 76.761433868974 13.238566131026C76.761433868974 13.238566131026 76.761433868974 13.238566131026 76.761433868974 13.238566131026S76.761433868974 13.238566131026 76.761433868974 13.238566131026C76.761433868974 13.238566131026 76.761433868974 13.238566131026 76.761433868974 13.238566131026C94.3386897404203 30.7045735475896 94.3386897404203 59.2954264524104 76.761433868974 76.8726823238566M73.9802224969098 74.0914709517923C90 58.0716934487021 90 32.0395550061805 73.9802224969098 16.0197775030902C60.5191594561187 2.5587144622992 38.6032138442522 2.5587144622992 25.0309023485785 16.0197775030902C22.2496909765142 18.8009888751545 20.0247218788628 22.0271940667491 18.3559950556242 25.5871446229913C18.3559950556242 25.6983930778739 18.2447466007417 25.6983930778739 18.2447466007417 25.6983930778739C18.1334981458591 26.0321384425216 17.9110012360939 26.3658838071694 17.7997527812114 26.6996291718171C17.6885043263288 26.9221260815822 17.5772558714462 27.0333745364648 17.5772558714462 27.2558714462299C17.4660074165637 27.4783683559951 17.3547589616811 27.7008652657602 17.3547589616811 27.9233621755253C17.2435105067985 28.2571075401731 17.1322620519159 28.5908529048208 17.0210135970334 28.8133498145859C17.0210135970334 28.9245982694685 16.9097651421508 29.1470951792336 16.9097651421508 29.2583436341162C16.7985166872682 29.7033374536465 16.6872682323857 30.0370828182942 16.4647713226205 30.4820766378245C16.4647713226205 30.5933250927071 16.4647713226205 30.5933250927071 16.4647713226205 30.7045735475896C16.3535228677379 31.1495673671199 16.2422744128554 31.7058096415328 16.1310259579728 32.150803461063C16.1310259579728 32.150803461063 16.1310259579728 32.150803461063 16.1310259579728 32.150803461063C13.9060568603214 41.2731767614339 15.4635352286774 51.1742892459827 20.8034610630408 59.2954264524104C20.8034610630408 59.2954264524104 20.8034610630408 59.2954264524104 20.8034610630408 59.406674907293C21.0259579728059 59.8516687268232 21.3597033374536 60.185414091471 21.5822002472188 60.6304079110012C21.6934487021014 60.7416563658838 21.6934487021014 60.8529048207664 21.8046971569839 60.8529048207664C22.0271940667491 61.1866501854141 22.3609394313968 61.5203955500618 22.5834363411619 61.8541409147095C22.6946847960445 61.9653893695921 22.8059332509271 62.0766378244747 22.9171817058096 62.2991347342398C23.1396786155748 62.6328800988875 23.4734239802225 62.8553770086527 23.6959208899876 63.1891223733004C23.8071693448702 63.3003708281829 23.9184177997528 63.5228677379481 24.0296662546353 63.6341161928307C24.3634116192831 64.0791100123609 24.8084054388133 64.5241038318912 25.2533992583436 64.8578491965389C25.4758961681088 65.0803461063041 25.8096415327565 65.3028430160692 26.0321384425216 65.6365883807169C26.0321384425216 65.6365883807169 26.0321384425216 65.6365883807169 26.0321384425216 65.6365883807169C26.2546353522868 65.8590852904821 26.4771322620519 66.0815822002472 26.6996291718171 66.1928306551298C26.6996291718171 66.1928306551298 26.8108776266996 66.3040791100124 26.8108776266996 66.3040791100124C27.0333745364648 66.4153275648949 27.2558714462299 66.6378244746601 27.3671199011125 66.7490729295427C27.4783683559951 66.8603213844252 27.5896168108776 66.8603213844252 27.5896168108776 66.9715698393078C27.7008652657602 67.0828182941904 27.9233621755253 67.1940667490729 28.0346106304079 67.3053152039555C28.1458590852905 67.4165636588381 28.2571075401731 67.5278121137206 28.4796044499382 67.6390605686032C28.5908529048208 67.7503090234858 28.7021013597033 67.7503090234858 28.8133498145859 67.8615574783684C29.035846724351 67.9728059332509 29.1470951792336 68.0840543881335 29.3695920889988 68.1953028430161C29.4808405438813 68.1953028430161 29.5920889987639 68.3065512978986 29.5920889987639 68.3065512978986C29.814585908529 68.4177997527812 30.0370828182942 68.5290482076638 30.2595797280593 68.6402966625464C30.2595797280593 68.6402966625464 30.3708281829419 68.6402966625464 30.3708281829419 68.7515451174289C30.593325092707 68.8627935723115 30.9270704573548 68.9740420271941 31.1495673671199 69.1965389369592C31.1495673671199 69.1965389369592 31.1495673671199 69.1965389369592 31.2608158220025 69.1965389369592C32.4845488257108 69.7527812113721 33.8195302843016 70.1977750309024 35.1545117428925 70.5315203955501C35.1545117428925 70.5315203955501 35.265760197775 70.5315203955501 35.265760197775 70.5315203955501C35.5995055624227 70.6427688504326 35.8220024721879 70.6427688504326 36.1557478368356 70.7540173053152C36.2669962917182 70.7540173053152 36.3782447466007 70.7540173053152 36.6007416563659 70.8652657601978C36.823238566131 70.8652657601978 37.0457354758962 70.9765142150804 37.1569839307787 70.9765142150804C37.4907292954265 70.9765142150804 37.8244746600742 71.0877626699629 38.1582200247219 71.0877626699629C38.1582200247219 71.0877626699629 38.1582200247219 71.0877626699629 38.1582200247219 71.0877626699629C38.8257107540173 71.1990111248455 39.6044499381953 71.1990111248455 40.2719406674907 71.1990111248455C46.0568603213844 71.1990111248455 51.5080346106304 68.9740420271941 55.6242274412855 64.857849196539C58.5166872682324 61.9653893695921 60.4079110012361 58.5166872682324 61.2978986402967 54.8454882571076C60.5191594561187 56.1804697156984 59.5179233621755 57.4042027194067 58.4054388133498 58.5166872682324C54.734239802225 62.1878862793573 49.9505562422744 64.1903584672435 44.8331273176761 64.1903584672435C39.7156983930779 64.1903584672435 34.9320148331273 62.1878862793572 31.2608158220025 58.5166872682324V58.5166872682324L31.2608158220025 58.5166872682324C21.2484548825711 48.504326328801 21.2484548825711 32.2620519159456 31.2608158220025 22.2496909765142C36.1557478368356 17.3547589616811 42.4969097651421 14.796044499382 49.3943139678616 14.796044499382C56.291718170581 14.796044499382 62.6328800988875 17.4660074165637 67.5278121137206 22.2496909765142C67.9728059332509 22.6946847960445 68.4177997527812 23.2509270704574 68.8627935723115 23.6959208899876C82.7688504326329 38.8257107540173 82.21260815822 62.2991347342398 67.7503090234858 76.8726823238566C65.1915945611867 79.4313967861558 62.4103831891224 81.5451174289246 59.406674907293 83.2138442521632C59.2954264524104 83.3250927070457 59.0729295426452 83.4363411619283 58.9616810877627 83.4363411619283C58.627935723115 83.5475896168109 58.4054388133498 83.770086526576 58.0716934487021 83.8813349814586C57.9604449938195 83.8813349814586 57.9604449938195 83.9925834363412 57.849196538937 83.9925834363412C63.7453646477132 82.1013597033375 69.3077873918418 78.7639060568603 73.9802224969098 74.0914709517923M34.2645241038319 55.8467243510507L34.2645241038319 55.8467243510507C37.1569839307787 58.7391841779975 40.9394313967862 60.2966625463535 45.0556242274413 60.2966625463535C49.1718170580964 60.2966625463535 52.9542645241038 58.7391841779975 55.8467243510507 55.8467243510507C61.7428924598269 49.9505562422744 61.7428924598269 40.2719406674907 55.8467243510507 34.2645241038319C52.9542645241038 31.3720642768851 49.1718170580964 29.8145859085291 45.0556242274413 29.8145859085291C40.9394313967862 29.8145859085291 37.1569839307787 31.3720642768851 34.2645241038319 34.2645241038319C28.2571075401731 40.1606922126082 28.2571075401731 49.8393077873918 34.2645241038319 55.8467243510507M3.89369592089 45.0556242274413C3.89369592089 55.9579728059333 8.1211372064277 66.3040791100124 15.9085290482077 74.0914709517924L15.9085290482077 74.0914709517924C16.2422744128554 74.4252163164401 16.5760197775031 74.7589616810878 16.9097651421508 75.0927070457355C17.0210135970334 75.2039555006181 17.1322620519159 75.2039555006181 17.1322620519159 75.3152039555006C17.3547589616811 75.5377008652658 17.6885043263288 75.7601977750309 18.0222496909765 76.0939431396786C18.1334981458591 76.2051915945612 18.3559950556242 76.3164400494438 18.4672435105068 76.5389369592089C18.6897404202719 76.7614338689741 18.9122373300371 76.8726823238566 19.1347342398022 77.0951792336218C19.3572311495674 77.3176761433869 19.5797280593325 77.4289245982695 19.8022249690977 77.6514215080346C19.9134734239802 77.7626699629172 20.1359703337454 77.8739184177998 20.2472187886279 77.9851668726823C20.5809641532756 78.2076637824475 20.9147095179234 78.4301606922126 21.2484548825711 78.6526576019778C21.3597033374536 78.7639060568603 21.4709517923362 78.7639060568603 21.4709517923362 78.8751545117429C21.9159456118665 79.097651421508 22.2496909765142 79.4313967861558 22.6946847960445 79.6538936959209C22.6946847960445 79.6538936959209 22.6946847960445 79.6538936959209 22.6946847960445 79.6538936959209C28.8133498145859 82.8800988875155 35.4882571075402 84.4375772558715 42.0519159456119 84.1038318912237H42.0519159456119C42.4969097651421 84.1038318912237 42.9419035846724 83.9925834363412 43.4981458590853 83.9925834363412C43.6093943139679 83.9925834363412 43.7206427688504 83.9925834363412 43.7206427688504 83.9925834363412C44.2768850432633 83.9925834363412 44.7218788627936 83.8813349814586 45.2781211372064 83.770086526576C45.2781211372064 83.770086526576 45.389369592089 83.770086526576 45.389369592089 83.770086526576C45.9456118665019 83.6588380716935 46.3906056860321 83.6588380716935 46.946847960445 83.5475896168109C46.946847960445 83.5475896168109 46.946847960445 83.5475896168109 47.0580964153276 83.5475896168109C47.6143386897404 83.4363411619283 48.0593325092707 83.3250927070457 48.6155747836836 83.2138442521632C48.6155747836836 83.2138442521632 48.7268232385661 83.2138442521632 48.7268232385661 83.2138442521632C49.1718170580964 83.1025957972806 49.6168108776267 82.991347342398 50.1730531520395 82.8800988875155C50.2843016069221 82.8800988875155 50.2843016069221 82.8800988875155 50.3955500618047 82.7688504326329C50.840543881335 82.6576019777503 51.1742892459827 82.5463535228677 51.619283065513 82.4351050679852C51.7305315203955 82.4351050679852 51.9530284301607 82.3238566131026 52.0642768850433 82.3238566131026C52.398022249691 82.21260815822 52.6205191594561 82.1013597033375 52.9542645241038 81.9901112484549C53.176761433869 81.8788627935723 53.3992583436341 81.7676143386897 53.6217552533993 81.7676143386897C53.8442521631644 81.6563658838072 53.955500618047 81.6563658838072 54.1779975278121 81.5451174289246C54.5117428924598 81.2113720642769 54.8454882571075 81.1001236093943 55.1792336217553 80.8776266996292C55.2904820766378 80.8776266996292 55.2904820766378 80.7663782447466 55.4017305315204 80.7663782447466C58.8504326328801 79.097651421508 62.0766378244747 76.8726823238566 64.9690976514215 73.9802224969098C77.9851668726823 60.964153275649 78.31891223733 39.938195302843 66.0815822002472 26.3658838071693C65.6365883807169 25.9208899876391 65.3028430160692 25.4758961681088 64.8578491965389 25.1421508034611C60.8529048207664 21.0259579728059 55.4017305315204 18.8009888751545 49.6168108776267 18.8009888751545C43.831891223733 18.8009888751545 38.380716934487 21.0259579728059 34.2645241038319 25.1421508034611C31.372064276885 28.0346106304079 29.4808405438813 31.4833127317676 28.5908529048208 35.1545117428925C29.3695920889988 33.8195302843016 30.3708281829419 32.5957972805933 31.4833127317676 31.4833127317676C35.1545117428925 27.8121137206428 39.938195302843 25.8096415327565 45.0556242274413 25.8096415327565C50.1730531520396 25.8096415327565 54.9567367119901 27.8121137206428 58.627935723115 31.3720642768851C58.627935723115 31.3720642768851 58.627935723115 31.3720642768851 58.627935723115 31.3720642768851C58.627935723115 31.3720642768851 58.627935723115 31.3720642768851 58.627935723115 31.3720642768851L58.627935723115 31.3720642768851C58.627935723115 31.3720642768851 58.627935723115 31.3720642768851 58.627935723115 31.3720642768851C58.7391841779975 31.4833127317676 58.7391841779975 31.4833127317676 58.8504326328801 31.5945611866502C58.9616810877627 31.7058096415328 59.0729295426453 31.8170580964153 59.0729295426453 31.9283065512979C59.2954264524104 32.1508034610631 59.406674907293 32.3733003708282 59.6291718170581 32.4845488257108C59.7404202719407 32.5957972805933 59.8516687268233 32.7070457354759 59.8516687268233 32.8182941903585C60.0741656365884 33.0407911001236 60.2966625463535 33.2632880098888 60.4079110012361 33.4857849196539C60.4079110012361 33.5970333745365 60.5191594561187 33.5970333745365 60.5191594561187 33.708281829419C60.7416563658838 33.9307787391842 60.964153275649 34.2645241038319 61.1866501854141 34.487021013597C61.1866501854141 34.487021013597 61.1866501854141 34.5982694684796 61.2978986402967 34.5982694684796C68.4177997527812 44.610630407911 67.5278121137207 58.627935723115 58.5166872682324 67.6390605686032C55.512978986403 70.6427688504327 51.8417799752781 72.8677379480841 47.9480840543882 73.9802224969098C47.9480840543882 73.9802224969098 47.8368355995056 73.9802224969098 47.8368355995056 73.9802224969098C47.5030902348579 74.0914709517924 47.1693448702101 74.2027194066749 46.8355995055624 74.2027194066749C46.7243510506799 74.2027194066749 46.7243510506799 74.2027194066749 46.6131025957973 74.3139678615575C46.2793572311496 74.4252163164401 45.9456118665019 74.4252163164401 45.6118665018542 74.5364647713226C45.5006180469716 74.5364647713226 45.5006180469716 74.5364647713226 45.389369592089 74.5364647713226C45.0556242274413 74.6477132262052 44.610630407911 74.6477132262052 44.2768850432633 74.7589616810878C44.2768850432633 74.7589616810878 44.1656365883807 74.7589616810878 44.1656365883807 74.7589616810878C42.4969097651422 74.9814585908529 40.8281829419036 75.0927070457355 39.0482076637825 74.9814585908529C39.0482076637825 74.9814585908529 39.0482076637825 74.9814585908529 39.0482076637825 74.9814585908529C38.6032138442522 74.9814585908529 38.2694684796045 74.9814585908529 37.8244746600742 74.8702101359703C37.4907292954265 74.8702101359703 37.1569839307787 74.7589616810878 36.9344870210136 74.7589616810878C36.823238566131 74.7589616810878 36.7119901112485 74.7589616810878 36.7119901112485 74.7589616810878C33.8195302843016 74.3139678615575 31.0383189122373 73.4239802224969 28.4796044499382 72.0889987639061C28.4796044499382 72.0889987639061 28.4796044499382 72.0889987639061 28.4796044499382 72.0889987639061C28.1458590852905 71.8665018541409 27.8121137206428 71.7552533992584 27.4783683559951 71.5327564894932C27.3671199011125 71.5327564894932 27.3671199011125 71.4215080346106 27.2558714462299 71.4215080346106C27.0333745364648 71.3102595797281 26.6996291718171 71.0877626699629 26.4771322620519 70.9765142150804C26.3658838071694 70.8652657601978 26.2546353522868 70.8652657601978 26.1433868974042 70.7540173053152C25.9208899876391 70.6427688504327 25.6983930778739 70.5315203955501 25.5871446229914 70.3090234857849C25.4758961681088 70.1977750309024 25.2533992583436 70.0865265760198 25.1421508034611 69.9752781211372C25.0309023485785 69.8640296662546 24.8084054388134 69.7527812113721 24.6971569839308 69.6415327564895C24.4746600741657 69.5302843016069 24.2521631644005 69.3077873918418 24.1409147095179 69.1965389369592C24.0296662546354 69.0852904820767 23.9184177997528 69.0852904820767 23.9184177997528 68.9740420271941C23.6959208899877 68.7515451174289 23.4734239802225 68.5290482076638 23.2509270704574 68.3065512978987C23.2509270704574 68.3065512978987 23.1396786155748 68.1953028430161 23.1396786155748 68.1953028430161C22.9171817058097 67.9728059332509 22.5834363411619 67.6390605686032 22.3609394313968 67.4165636588381C21.9159456118665 66.9715698393078 21.4709517923362 66.5265760197775 21.0259579728059 65.9703337453647C20.9147095179234 65.8590852904821 20.8034610630408 65.636588380717 20.6922126081582 65.5253399258344C20.3584672435105 65.1915945611867 20.1359703337454 64.857849196539 19.8022249690977 64.5241038318912C19.6909765142151 64.4128553770087 19.5797280593325 64.3016069221261 19.46847960445 64.1903584672435C19.1347342398022 63.8566131025958 18.9122373300371 63.4116192830655 18.5784919653894 63.0778739184178C18.5784919653894 62.9666254635352 18.4672435105068 62.9666254635352 18.4672435105068 62.8553770086527C18.1334981458591 62.4103831891224 17.7997527812114 61.9653893695921 17.4660074165637 61.5203955500618C17.4660074165637 61.5203955500618 17.4660074165637 61.5203955500618 17.4660074165637 61.5203955500618C13.3498145859085 55.2904820766378 11.1248454882571 47.9480840543882 11.1248454882571 40.2719406674907C11.1248454882571 35.9332509270705 11.9035846724351 31.5945611866502 13.238566131026 27.5896168108776C13.238566131026 27.5896168108776 13.238566131026 27.4783683559951 13.238566131026 27.4783683559951C13.3498145859085 27.0333745364648 13.5723114956737 26.5883807169345 13.7948084054388 26.1433868974042C13.9060568603214 26.0321384425216 13.9060568603214 25.8096415327565 14.017305315204 25.6983930778739C14.1285537700865 25.3646477132262 14.2398022249691 25.0309023485785 14.4622991347342 24.8084054388134C14.5735475896168 24.4746600741657 14.6847960444994 24.2521631644005 14.796044499382 23.9184177997528C14.9072929542645 23.8071693448702 14.9072929542645 23.5846724351051 15.0185414091471 23.4734239802225C16.7985166872682 19.6909765142151 19.3572311495674 16.2422744128554 22.4721878862794 13.1273176761434C25.4758961681088 10.123609394314 28.9245982694685 7.6761433868974 32.5957972805933 5.8961681087763C26.4771322620519 7.8986402966626 20.8034610630408 11.2360939431397 16.1310259579728 15.9085290482077C8.2323856613103 23.6959208899876 3.89369592089 34.0420271940668 3.89369592089 45.0556242274413M36.9344870210136 42.8306551297899C35.7107540173053 42.8306551297899 34.7095179233622 43.831891223733 34.7095179233622 45.0556242274413C34.7095179233622 46.2793572311496 35.7107540173053 47.2805933250927 36.9344870210136 47.2805933250927H42.8306551297899V53.176761433869C42.8306551297899 54.4004944375773 43.831891223733 55.4017305315204 45.0556242274413 55.4017305315204C46.2793572311496 55.4017305315204 47.2805933250927 54.4004944375773 47.2805933250927 53.176761433869V47.2805933250927H53.176761433869C54.4004944375773 47.2805933250927 55.4017305315204 46.2793572311496 55.4017305315204 45.0556242274413C55.4017305315204 43.831891223733 54.4004944375773 42.8306551297899 53.176761433869 42.8306551297899H47.2805933250927V36.9344870210136C47.2805933250927 35.7107540173053 46.2793572311496 34.7095179233622 45.0556242274413 34.7095179233622C43.831891223733 34.7095179233622 42.8306551297899 35.7107540173053 42.8306551297899 36.9344870210136V42.8306551297899H36.9344870210136" />
    <glyph glyph-name="drag"
      unicode="&#xEA0C;"
      horiz-adv-x="90" d=" M83.9 50.1C83.9 50.3 83.9 50.4 83.9 50.4C83.9 55.6 80.8 59.2 76.1 59.2C75.1 59.2 74.2 59 73.3 58.7C73.3 58.7 73.3 58.7 73.3 58.7C72.6 62.9 68.9 66.1 64.5 66.1C63.3 66.1 62 65.8 60.9 65.4C60.9 65.4 60.9 65.4 60.9 65.4C59.2 67.6 56.6 68.8 53.8 68.8C52.2 68.8 50.7 68.4 49.3 67.6C49.3 67.6 49.3 67.6 49.3 67.6V81.2C49.3 86 45.3 90 40.4 90S31.5 86.1 31.5 81.2V51.1C31.1 51.2 30.7 51.2 30.2 51.2C25.3 51.2 21.3 47.3 21.3 42.4V32.3C21.3 30.8 21.7 29 22.5 27.3C22.5 27.2 22.6 27.1 22.6 27C23.1 25.8 23.9 24.7 24.6 23.9C24.6 23.9 24.6 23.9 24.6 23.9C25.7 22.2 27.2 20.3 28.6 18.3C30.3 16.1 32.3 13.4 33.4 11.4C33.4 11.4 33.4 11.4 33.4 11.4C32.1 10.1 31.3 8.4 31.3 6.7C31.3 3 34.5 0 38.4 0H72.9C76.8 0 80 3 80 6.7C80 8.6 79.2 10.3 77.7 11.6C77.7 11.6 77.7 11.6 77.7 11.6C79.5 15.1 81.8 20.7 83.1 27.9C84.2 35.2 84.6 43 83.9 50.1zM79.3 28.6C78.1 21.9 75.9 16.6 74.2 13.3C74.2 13.3 74.2 13.3 74.2 13.3C73.7 13.4 73.3 13.4 72.8 13.4C69.3 13.4 65.7 11.9 65.6 11.8L64.6 11.4L65.5 10.8C65.6 10.7 66.2 10.4 68.1 10.2L72.8 9.7C74.7 9.7 76.2 8.3 76.2 6.7C76.2 5 74.7 3.7 72.8 3.7H38.3C36.4 3.7 34.9 5.1 34.9 6.7C34.9 8.4 36.4 9.7 38.3 9.7C40.6 9.7 47.6 10.7 47.9 10.8L51 11.3L48 12C47.7 12.1 41.8 13.5 38.3 13.5C37.7 13.5 37.1 13.4 36.6 13.3C36.6 13.3 36.6 13.3 36.6 13.3C35.4 15.4 33.4 18.1 31.5 20.6C30 22.6 28.6 24.5 27.5 26.2C27.5 26.2 27.5 26.2 27.5 26.2C26.9 26.8 26.4 27.6 26 28.5L25.9 28.7C25.3 30 25 31.3 25 32.3V42.4C25 45.2 27.4 47.5 30.2 47.5C30.6 47.5 31 47.5 31.4 47.4C31.4 47.4 31.4 47.4 31.4 47.4L31.4 40C31.4 39 32.1 38.1 33.1 38C34.2 37.9 35.1 38.8 35.1 39.8V81.2C35.1 84 37.4 86.3 40.3 86.3C43.2 86.3 45.5 84 45.5 81.2L45.5 56.1C45.5 55.1 46.2 54.2 47.2 54.1C48.3 54 49.2 54.9 49.2 56C49.1 57.5 48.9 61.5 49.2 62.4C49.2 62.4 49.2 62.4 49.2 62.4C49.7 63.6 51.7 65 53.8 65C55.7 65 57.9 64.1 58.4 62.3C58.6 61.5 58.5 56 58.4 52.7C58.4 51.7 59.2 50.8 60.3 50.8C61.3 50.8 62.2 51.6 62.2 52.7C62 56.5 61.9 60.8 62.1 61.6C62.1 61.6 62.1 61.6 62.1 61.6C62.7 62.1 63.4 62.2 64.3 62.2H64.5C67.4 62.2 69.7 59.9 69.7 57.1V49.6C69.7 48.6 70.4 47.7 71.4 47.6C72.5 47.5 73.4 48.4 73.4 49.5C73.4 51.4 73.3 54.2 73.4 54.4C73.4 54.4 73.4 54.4 73.4 54.4C73.6 54.9 74.5 55.2 76.1 55.2C79.8 55.2 80.2 51.6 80.2 50C80.2 50.2 81.4 40.5 79.3 28.6zM46.8 32.1C47.2 30.7 47.4 28.7 47.4 26.8C47.4 24.9 47.1 22.9 46.8 21.5C46.4 20 45.9 19 45.9 19S45.4 20 45.1 21.4C44.7 22.8 44.5 24.8 44.5 26.7C44.5 28.6 44.8 30.6 45.1 32C45.4 33.4 45.9 34.4 45.9 34.4S46.4 33.5 46.8 32.1zM56 32.1C56.4 30.7 56.6 28.7 56.6 26.8C56.6 24.9 56.3 22.9 56 21.5C55.7 20 55.2 19 55.2 19S54.7 20 54.4 21.4C54 22.8 53.8 24.8 53.8 26.7C53.8 28.6 54.1 30.6 54.4 32C54.7 33.4 55.2 34.4 55.2 34.4S55.7 33.5 56 32.1zM65.3 32.1C65.7 30.7 65.9 28.7 65.9 26.8C65.9 24.9 65.6 22.9 65.3 21.5C64.9 20 64.5 19 64.5 19S64 20 63.7 21.4C63.3 22.8 63.1 24.8 63.1 26.7C63.1 28.6 63.4 30.6 63.7 32C64.1 33.4 64.5 34.4 64.5 34.4S64.9 33.5 65.3 32.1zM21.7 81.9C21.8 80.7 20.9 79.8 19.7 79.8H15.9C15.9 79.8 15.9 79.8 15.9 79.8V77.4C15.9 76.3 15.1 75.8 14.2 76.4L6.5 80.7C5.5 81.3 5.5 82.2 6.5 82.7L14.1 87.1C15.1 87.7 15.8 87.2 15.8 86.1V83.7C15.8 83.7 15.8 83.7 15.8 83.7L19.5 83.7C20.6 83.6 21.6 82.9 21.7 81.9zM74.1 80.7L66.4 76.3C65.5 75.8 64.7 76.2 64.7 77.3V79.8C64.7 79.8 64.7 79.8 64.7 79.8H60.9C59.8 79.8 58.8 80.8 58.9 81.9C59 82.9 60 83.7 61 83.7L64.7 83.7C64.7 83.7 64.7 83.7 64.7 83.7V86.1C64.7 87.2 65.5 87.7 66.4 87.1L74.1 82.7C75.1 82.1 75.1 81.2 74.1 80.7z" />
    <glyph glyph-name="facebook"
      unicode="&#xEA0D;"
      horiz-adv-x="90" d=" M85 90H5C2.2 90 0 87.8 0 85V5C0 2.3 2.2 0 5 0H48.1V34.9H36.3V48.4H48V58.4C48 70 55.1 76.4 65.5 76.4C70.5 76.4 74.7 76 76 75.9V63.8L68.8 63.8C63.2 63.8 62.1 61.1 62.1 57.2V48.5H75.6L73.8 34.9H62.1V0H85V0C87.7 0 90 2.2 90 5V85C90 87.8 87.8 90 85 90z" />
    <glyph glyph-name="google"
      unicode="&#xEA0E;"
      horiz-adv-x="90" d=" M87.5 90H2.5C1.1 90 0 88.9 0 87.5V2.5C0 1.1 1.1 0 2.5 0H87.5C88.9 0 90 1.1 90 2.5V87.5C90 88.9 88.9 90 87.5 90zM36 29.2C27.3 29.2 20.2 36.2 20.2 45C20.2 53.7 27.2 60.7 36 60.7C40.3 60.7 43.8 59.1 46.6 56.6L42.3 52.5C41.1 53.6 39.1 54.9 36 54.9C30.6 54.9 26.2 50.4 26.2 45S30.6 35.1 36 35.1C42.2 35.1 44.6 39.6 44.9 41.9H36V47.3H50.9C51 46.5 51.1 45.7 51.1 44.7C51.1 35.6 45.1 29.2 36 29.2zM69.7 42.7H65.2V38.2H60.7V42.7H56.2V47.2H60.7V51.7H65.2V47.2H69.7V42.7z" />
    <glyph glyph-name="instagram"
      unicode="&#xEA0F;"
      horiz-adv-x="90" d=" M30 45C30 53.3 36.7 60 45 60S60 53.3 60 45S53.3 30 45 30S30 36.7 30 45M21.9 45C21.9 32.2 32.2 21.9 45 21.9S68.1 32.2 68.1 45S57.8 68.1 45 68.1S21.9 57.8 21.9 45M63.6 69C63.6 66 66 63.6 69 63.6C72 63.6 74.4 66 74.4 69S72 74.4 69 74.4S63.6 72 63.6 69M26.8 8.4C22.4 8.6 20 9.3 18.4 9.9C16.3 10.7 14.8 11.7 13.2 13.3C11.6 14.9 10.6 16.4 9.8 18.5C9.2 20.1 8.5 22.5 8.3 26.9C8.2 31.6 8.1 33 8.1 45S8.1 58.4 8.4 63.2C8.6 67.6 9.3 70 9.9 71.6C10.7 73.7 11.7 75.2 13.3 76.8C14.9 78.4 16.4 79.4 18.5 80.2C20.1 80.8 22.5 81.5 26.9 81.7C31.6 81.9 33 81.9 45 81.9C57 81.9 58.4 81.9 63.2 81.6C67.6 81.4 70 80.7 71.6 80.1C73.7 79.3 75.2 78.3 76.8 76.7C78.4 75.1 79.3 73.6 80.2 71.5C80.8 69.9 81.5 67.5 81.7 63.1C81.9 58.4 82 56.9 82 44.9C82 32.9 82 31.5 81.7 26.7C81.5 22.3 80.8 19.9 80.2 18.3C79.4 16.2 78.4 14.7 76.8 13.1S73.7 10.6 71.6 9.7C70 9.1 67.6 8.4 63.2 8.2C58.5 8 57 7.9 45 7.9C33 8.1 31.6 8.2 26.8 8.4M26.4 89.7C21.6 89.5 18.3 88.7 15.5 87.6C12.5 86.5 10 84.9 7.5 82.4C5 79.9 3.5 77.4 2.3 74.4C1.2 71.5 0.4 68.3 0.2 63.5C0.1 58.8 0 57.2 0 45S0.1 31.2 0.3 26.4C0.5 21.6 1.3 18.3 2.4 15.5C3.5 12.5 5.1 10 7.6 7.5C10.1 5 12.6 3.5 15.6 2.3C18.5 1.2 21.7 0.4 26.5 0.2C31.3 0.1 32.8 0 45 0C57.2 0 58.8 0.1 63.6 0.3C68.4 0.5 71.7 1.3 74.5 2.4C77.5 3.6 80 5.1 82.5 7.6C85 10.1 86.5 12.6 87.7 15.6C88.8 18.5 89.6 21.7 89.8 26.5C89.9 31.2 90 32.8 90 45S89.9 58.8 89.7 63.6C89.5 68.4 88.7 71.7 87.6 74.5C86.4 77.5 84.9 80 82.4 82.5C79.9 85 77.4 86.5 74.4 87.7C71.5 88.8 68.3 89.6 63.5 89.8C58.8 89.9 57.2 90 45 90C32.8 90 31.3 90 26.4 89.7" />
    <glyph glyph-name="lente"
      unicode="&#xEA10;"
      horiz-adv-x="90" d=" M89 4L59.2 33.9C64.7 39.9 68 47.8 68 56.5C68 75 53 90 34.5 90S1 75 1 56.5S16 23 34.5 23C42.2 23 49.3 25.6 55 30L85 0L89 4zM34.5 28.7C19.2 28.7 6.7 41.2 6.7 56.5S19.2 84.3 34.5 84.3S62.3 71.8 62.3 56.5S49.8 28.7 34.5 28.7z" />
    <glyph glyph-name="menu"
      unicode="&#xEA11;"
      horiz-adv-x="90" d=" M0 67.7V83.9H90V67.7H0zM90 36.9V53.1H0V36.9H90zM90 6.1V22.3H0V6.1H90z" />
    <glyph glyph-name="pause"
      unicode="&#xEA12;"
      horiz-adv-x="90" d=" M36 0H15.9V90H36V0zM74.1 90H54V0H74.1V90z" />
    <glyph glyph-name="play-anteprima"
      unicode="&#xEA13;"
      horiz-adv-x="90" d=" M65.3 45L37.6 25.5V64.5L65.3 45zM90 45C90 69.8 69.8 90 45 90S0 69.8 0 45C0 20.2 20.2 0 45 0S90 20.2 90 45zM86.1 45C86.1 22.3 67.6 3.9 45 3.9S3.9 22.3 3.9 45S22.3 86.1 45 86.1S86.1 67.7 86.1 45z" />
    <glyph glyph-name="play"
      unicode="&#xEA14;"
      horiz-adv-x="90" d=" M77 45L13 0L13 90z" />
    <glyph glyph-name="scroll-mouse"
      unicode="&#xEA15;"
      horiz-adv-x="90" d=" M72.3 24.5V65.5C72.3 79 61.3 90 47.7 90H42.2C28.7 90 17.7 79 17.7 65.5V24.6C17.7 11 28.7 0 42.3 0H47.8C61.3 0 72.3 11 72.3 24.5zM47.7 84.5C58.2 84.5 66.8 75.9 66.8 65.4V24.5C66.8 14 58.2 5.4 47.7 5.4H42.2C31.7 5.4 23.1 14 23.1 24.5V65.5C23.1 76 31.7 84.6 42.2 84.6H47.7zM47.7 60.5V73.2C47.7 74.7 46.5 75.9 45 75.9S42.3 74.7 42.3 73.2V60.5C42.3 59 43.5 57.8 45 57.8S47.7 58.9 47.7 60.5z" />
    <glyph glyph-name="scroll"
      unicode="&#xEA16;"
      horiz-adv-x="90" d=" M49.7 4.7L45 0L40.3 4.7L49.7 4.7zM58.6 57.3V77.7C58.6 84.5 53.1 90 46.4 90H43.7C36.9 90 31.4 84.5 31.4 77.7V57.3C31.4 50.5 36.9 45 43.7 45H46.4C53.1 45.1 58.6 50.6 58.6 57.3zM46.4 87.3C51.7 87.3 55.9 83 55.9 77.8V57.4C55.9 52.1 51.6 47.9 46.4 47.9H43.7C38.4 47.9 34.2 52.2 34.2 57.4V77.7C34.2 83 38.5 87.2 43.7 87.2H46.4zM46.4 75.3V81.6C46.4 82.4 45.8 83 45 83S43.6 82.4 43.6 81.6V75.2C43.6 74.4 44.2 73.8 45 73.8S46.4 74.5 46.4 75.3zM49.1 37.2C49.1 39.5 47.3 41.3 45 41.3S40.9 39.5 40.9 37.2C40.9 34.9 42.7 33.1 45 33.1S49.1 34.9 49.1 37.2zM46.4 37.2C46.4 36.5 45.8 35.8 45 35.8S43.6 36.4 43.6 37.2S44.2 38.6 45 38.6S46.4 37.9 46.4 37.2zM49.1 26.6C49.1 28.9 47.3 30.7 45 30.7S40.9 28.9 40.9 26.6S42.7 22.5 45 22.5S49.1 24.4 49.1 26.6zM46.4 26.6C46.4 25.9 45.8 25.2 45 25.2S43.6 25.8 43.6 26.6C43.6 27.3 44.2 28 45 28S46.4 27.4 46.4 26.6zM49.1 16.1C49.1 18.4 47.3 20.2 45 20.2S40.9 18.4 40.9 16.1S42.7 12 45 12S49.1 13.8 49.1 16.1zM46.4 16.1C46.4 15.4 45.8 14.7 45 14.7S43.6 15.3 43.6 16.1S44.2 17.5 45 17.5S46.4 16.8 46.4 16.1z" />
    <glyph glyph-name="select-down"
      unicode="&#xEA17;"
      horiz-adv-x="90" d=" M45 13L0 77L90 77z" />
    <glyph glyph-name="select-up"
      unicode="&#xEA18;"
      horiz-adv-x="90" d=" M45 77L90 13L0 13z" />
    <glyph glyph-name="twitter"
      unicode="&#xEA19;"
      horiz-adv-x="90" d=" M58.2 76.9L58.2 76.9L61.9 76.9L63.2 76.6C64.1 76.4 64.9 76.2 65.6 75.9C66.3 75.6 67 75.3 67.7 74.9C68.4 74.5 69 74.1 69.6 73.7C70.2 73.3 70.6 72.9 71.1 72.5C71.5 72.1 72.2 71.9 73.1 72.2S75 72.7 76.1 73.1C77.2 73.5 78.2 73.9 79.3 74.4C80.3 74.9 81 75.2 81.2 75.3C81.4 75.4 81.5 75.5 81.6 75.5L81.6 75.5L81.7 75.5L81.8 75.5L81.9 75.5L82 75.5L82 75.5L82 75.5L82 75.5L82 75.5L82.1 75.5L82.2 75.5L82.2 75.4L82.2 75.3L82.2 75.2L82.2 75.1L82.2 75L82.2 74.9L82.2 74.8C82.2 74.7 82.2 74.6 82.1 74.5C82.1 74.4 81.9 73.9 81.4 73.1C81 72.3 80.4 71.4 79.8 70.6S78.6 69.1 78.1 68.7C77.6 68.3 77.3 68 77.1 67.8C76.9 67.6 76.7 67.5 76.5 67.3L76.1 67.1L76 67.1L75.9 67.1L75.9 67.1L75.9 67.1L75.9 67.1L75.9 67.1L75.8 67.1L75.7 67.1L75.7 67.1L75.7 67.1L75.7 67.1L75.7 67.1L75.7 67.1L75.7 67.1L75.7 67.1L75.7 67.1H76.1L78.1 67.5C79.4 67.8 80.7 68.1 81.9 68.5L83.8 69.1L84 69.2L84.1 69.2L84.2 69.2L84.3 69.2L84.4 69.2L84.5 69.2L84.6 69.2L84.7 69.2V69.1L84.7 69.1L84.7 69.1L84.7 69.1L84.7 69.1L84.7 69.1L84.7 69.1L84.7 69.1L84.7 69.1L84.7 69.1L84.7 69.1L84.7 69.1L84.7 69.1L84.7 69L84.7 68.9L84.7 68.9C84.7 68.9 84.4 68.5 83.8 67.7C83.2 66.9 82.9 66.5 82.8 66.5C82.8 66.5 82.7 66.4 82.6 66.3C82.5 66.2 82 65.6 81.1 64.7C80.2 63.8 79.3 63 78.4 62.2C77.5 61.5 77.1 60.6 77.1 59.5C77.1 58.5 77 57.3 76.9 55.9C76.8 54.6 76.6 53.1 76.4 51.6C76.1 50.1 75.7 48.3 75.2 46.4C74.7 44.5 74 42.6 73.2 40.7C72.4 38.9 71.6 37.2 70.8 35.7S69.2 33 68.5 32C67.8 31 67.1 30 66.3 29.1C65.6 28.2 64.6 27.2 63.5 26.1C62.4 25 61.8 24.4 61.7 24.3C61.6 24.2 61.1 23.8 60.3 23.1C59.5 22.4 58.6 21.7 57.7 21.1C56.8 20.4 55.9 19.9 55.1 19.4C54.3 19 53.4 18.4 52.3 17.9C51.2 17.3 50 16.8 48.7 16.3C47.4 15.8 46.1 15.3 44.7 14.9S41.9 14.1 40.6 13.9C39.3 13.7 37.8 13.5 36.1 13.3L33.6 13.1V13.1H29V13.1L28.4 13.1C28 13.1 27.7 13.1 27.4 13.2C27.1 13.2 26.2 13.4 24.5 13.6C22.8 13.8 21.5 14.1 20.5 14.3C19.5 14.5 18.1 15 16.2 15.6S12.6 16.9 11.3 17.6C9.9 18.3 9.1 18.7 8.7 18.9C8.4 19.1 8 19.3 7.6 19.6L6 20L6 20L6 20L6 20L6 20L5.9 20L5.8 20L5.8 20L5.8 20L5.8 20L5.8 20L5.8 20L5.8 20H5.8V20.1L5.9 20.1L6 20.1L6.3 20.1C6.5 20.1 7.1 20 8 20C8.9 20 10 20 11 20S13.2 20.2 14.3 20.3C15.4 20.5 16.7 20.7 18.2 21.2C19.7 21.6 21.1 22.1 22.4 22.6C23.7 23.2 24.6 23.6 25.1 23.8C25.6 24.1 26.4 24.6 27.5 25.3L29.1 26.4L29.1 26.4L29.1 26.4L29.1 26.4L29.1 26.4L29.1 26.4L29.1 26.4L29.1 26.4L29.1 26.4L29.2 26.4L29.3 26.4L29.3 26.5L29.3 26.6L29.3 26.6L29.3 26.6L28.7 26.6C28.3 26.6 28 26.6 27.6 26.7C27.2 26.7 26.7 26.8 25.9 27C25.1 27.2 24.3 27.5 23.5 27.9C22.6 28.3 21.8 28.7 20.9 29.2C20.1 29.7 19.5 30.2 19.1 30.5C18.7 30.8 18.3 31.3 17.7 31.9C17.1 32.5 16.6 33.2 16.2 33.8C15.8 34.5 15.4 35.2 15 36.1L14.4 37.4L14.4 37.5L14.4 37.6L14.4 37.7L14.4 37.8L14.5 37.8L14.6 37.8L15.4 37.7C15.9 37.6 16.7 37.6 17.8 37.6C18.9 37.6 19.7 37.7 20.1 37.7C20.5 37.8 20.8 37.8 20.9 37.8L21 37.8L21.2 37.8L21.4 37.8L21.4 37.8L21.4 37.8L21.4 37.8L21.4 37.8L21.3 37.8L21.2 37.8L21.1 37.8L21 37.8L20.9 37.8C20.8 37.8 20.6 37.9 20.4 37.9C20.2 38 19.5 38.2 18.5 38.7C17.5 39.1 16.6 39.6 16 40C15.4 40.4 14.8 40.9 14.2 41.4C13.6 41.9 13 42.6 12.4 43.4C11.7 44.2 11.1 45.1 10.6 46.2C10.1 47.3 9.7 48.3 9.4 49.2C9.1 50.2 9 51.1 8.9 52.1L8.8 53.6L8.9 53.6L9 53.6L9.1 53.6L9.2 53.6L9.3 53.6L9.4 53.6L10.5 53.1C11.2 52.8 12.1 52.5 13.2 52.2C14.3 52 14.9 51.8 15.2 51.8L15.5 51.8H16.1L16.1 51.8L16.1 51.8L16.1 51.8L16.1 51.8L16.1 51.8L16.1 51.8L16.1 51.8L16.1 51.8L16 51.8L15.9 51.8L15.9 51.8L15.9 51.8L15.9 51.8L15.9 51.8L15.8 51.8L15.7 51.8L15.7 51.8C15.7 51.8 15.5 52 15.1 52.3C14.7 52.6 14.3 53 13.9 53.5C13.5 54 13 54.5 12.6 55C12.2 55.5 11.8 56.1 11.5 56.7C11.2 57.3 10.8 58 10.5 59C10.1 59.9 9.9 60.8 9.7 61.7C9.5 62.6 9.4 63.5 9.4 64.4C9.4 65.3 9.4 66.1 9.5 66.7S9.7 68.1 9.9 68.9C10.1 69.7 10.4 70.6 10.8 71.5L11.4 72.8L11.4 72.9L11.4 73L11.4 73L11.4 73L11.4 73L11.4 73L11.4 73L11.4 73L11.4 73L11.4 73L11.4 73L11.4 73L11.4 73L11.4 73L11.4 72.9L11.4 72.8L11.4 72.8L11.4 72.8L12.4 71.7C13 71 13.8 70.2 14.7 69.3C15.6 68.4 16.1 68 16.2 67.9C16.3 67.9 16.4 67.8 16.6 67.6C16.7 67.4 17.2 67 18 66.3C18.8 65.6 19.9 64.9 21.2 64C22.5 63.1 23.9 62.3 25.5 61.4C27.1 60.5 28.8 59.8 30.6 59.1C32.4 58.4 33.7 58 34.4 57.8C35.1 57.6 36.4 57.3 38.2 57C40 56.7 41.3 56.5 42.2 56.4C43.1 56.3 43.7 56.3 44 56.2L44.5 56.2L44.5 56.3L44.5 56.4L44.4 57.3C44.3 57.9 44.3 58.7 44.3 59.8C44.3 60.9 44.4 61.8 44.5 62.7C44.7 63.6 44.9 64.5 45.2 65.4C45.5 66.3 45.9 67.1 46.2 67.6C46.5 68.2 46.9 68.8 47.5 69.5C48 70.2 48.7 70.9 49.5 71.7C50.3 72.5 51.3 73.1 52.3 73.7C53.4 74.3 54.3 74.7 55.2 75C56.1 75.3 56.9 75.5 57.5 75.6C57.9 76.9 58.2 76.9 58.2 76.9z" />
  </font>
</defs>
</svg>
