<?xml version="1.0" encoding="utf-8"?>
<!-- Generator: Adobe Illustrator 21.0.0, SVG Export Plug-In . SVG Version: 6.00 Build 0)  -->
<svg version="1.1" id="Layer_1" xmlns="http://www.w3.org/2000/svg" xmlns:xlink="http://www.w3.org/1999/xlink" x="0px" y="0px"
	 viewBox="0 0 90 90" style="enable-background:new 0 0 90 90;" xml:space="preserve">
<path d="M72.3,65.5V24.5C72.3,11,61.3,0,47.7,0h-5.5C28.7,0,17.7,11,17.7,24.5v40.9C17.7,79,28.7,90,42.3,90h5.5
	C61.3,90,72.3,79,72.3,65.5z M47.7,5.5c10.5,0,19.1,8.6,19.1,19.1v40.9c0,10.5-8.6,19.1-19.1,19.1h-5.5c-10.5,0-19.1-8.6-19.1-19.1
	V24.5c0-10.5,8.6-19.1,19.1-19.1H47.7z M47.7,29.5V16.8c0-1.5-1.2-2.7-2.7-2.7s-2.7,1.2-2.7,2.7v12.7c0,1.5,1.2,2.7,2.7,2.7
	S47.7,31.1,47.7,29.5z"/>
</svg>
