<?xml version="1.0" encoding="utf-8"?>
<!-- Generator: Adobe Illustrator 16.0.0, SVG Export Plug-In . SVG Version: 6.00 Build 0)  -->
<!DOCTYPE svg PUBLIC "-//W3C//DTD SVG 1.1//EN" "http://www.w3.org/Graphics/SVG/1.1/DTD/svg11.dtd">
<svg version="1.1" id="Livello_2" xmlns="http://www.w3.org/2000/svg" xmlns:xlink="http://www.w3.org/1999/xlink" x="0px" y="0px"
	 width="841.89px" height="595.28px" viewBox="0 0 841.89 595.28" enable-background="new 0 0 841.89 595.28" xml:space="preserve">
<g>
	<g>
		<path d="M788.053,149.074c-7.249-28.045-19.932-96.925-90.841-106.747c0,0-167.147-8.643-226.74-8.904
			c-59.596-0.261-192.683,1.785-212.813,2.532c-20.13,0.746-111.071,5.762-111.071,5.762S75.219,45.731,56.5,130.641
			c-1.987,9.306-5.884,34.815-6.359,39.621c-0.476,4.808-7.499,144.87-4.223,195.294c3.275,50.426,5.076,98.152,17.325,122.544
			c12.251,24.396,23.364,64.561,109.166,68.376c85.801,3.815,309.44,13.246,473.272,1.126c27.739-1.458,40.619-2.296,40.619-2.296
			s86.785,4.886,101.754-115.959C793.156,379.337,800.646,256.891,788.053,149.074z M343.232,395.736V184.879l201.161,105.427
			L343.232,395.736z"/>
	</g>
</g>
</svg>
