<svg id="Layer_1" xmlns="http://www.w3.org/2000/svg" viewBox="0 0 329.5 291.4"><style>.st0{fill:#37393d}.st1{fill:#fff}.st2{fill:#eaebf5}.st3{fill:#7082ad}.st4{fill:#7c8cb0}.st5{opacity:.5;fill:#d0d1d0;enable-background:new}</style><path class="st0" d="M320.1 159.6c16.7-16.6 11.5-50.2-17.4-50.2l-76.1.1c2.9-16.1 7.1-42.8 6.9-45.3-1.6-23.9-16.8-52.9-17.5-54.1-2.8-5.2-16.8-12.2-30.9-9.2-18.3 3.9-20.1 15.5-20 18.7 0 0 .8 31.8.9 40.3-8.7 19.2-38.8 69.5-47.9 73.4-2.2-1.3-4.7-2-7.2-2H14.7C6.6 131.3 0 137.9 0 146v132.8c.6 7.2 6.6 12.8 13.8 12.8h86.3c7.7 0 13.9-6.2 13.9-13.9v-4.4s3.2-.2 4.7.7c5.6 3.5 12.4 8 21.4 8h128.8c48.1 0 43-42.7 38.6-48.6 8.1-8.9 13.2-24.5 6.3-36.8 5.3-5.8 14.6-21.1 6.3-37z"/><path class="st1" d="M300.5 123.2h-90.8c3.5-13.9 10-58.3 10-58.3-1.5-21.5-15.9-48.6-15.9-48.6C186.7 9.1 179 19 179 19s.9 34.2.9 42.1c0 7.9-39.1 71.1-48.7 79.3-5.1 4.3-14.2 10.2-21.6 14.9v102h5.9c6.8 0 15.2 10.6 24.5 10.6l131-.1c26.3 0 30.5-29.7 13.1-32.5l.8-3.3c16.7-1.8 26.8-28.1 5.5-33.5l.8-3.3c15.9-1.7 27.7-27.2 5.5-33.6l.8-3.3c21-3.2 25.3-35 3-35.1z"/><path class="st2" d="M296.8 161.7l.8-3.3c20.9-3.3 25.1-35.2 2.9-35.2h-43.9c22.3 0 18 31.9-2.9 35.2l-.3 1.9c22.2 6.3 9.9 33.2-6 34.9l-.3 2c21.3 5.4 10.7 33.1-6 34.9l-.3 1.9c17.4 2.8 12.7 33.8-13.6 33.8h-87.4.3l131-.1c26.3 0 30.5-29.7 13.1-32.5l.8-3.3c16.7-1.8 26.8-28.1 5.5-33.5l.8-3.3c15.9-1.5 27.7-27.1 5.5-33.4z"/><path class="st3" d="M13.9 145h86.5v132.6H13.9z"/><path class="st4" d="M13.9 145v132.6h86.5V145H13.9zm80.9 127H19.4V162.1l75.4-.1v110z"/><path class="st5" d="M122.7 260V146.8c-.2.1-12.1 7.9-13.1 8.5v102h5.9c2.3.1 4.7 1.2 7.2 2.7z"/><path class="st2" d="M191.6 13.8c.1.2 10.7 39.6 10.7 45.3 0 5.7-32.3 53.8-27.9 59.8 5.9 8.3 35.3 4.3 35.3 4.3 3.5-13.9 10-58.3 10-58.3-1.5-21.5-15.9-48.6-15.9-48.6-.6-.1-5.5-2.5-12.2-2.5z"/></svg>