<svg id="Layer_1" xmlns="http://www.w3.org/2000/svg" xmlns:xlink="http://www.w3.org/1999/xlink" viewBox="0 0 2500 739.5"><style>.st0,.st1{clip-path:url(#SVGID_2_);fill:#272525}.st1{fill:#fefefe}.st2{clip-path:url(#SVGID_4_);fill:url(#SVGID_5_)}.st3{clip-path:url(#SVGID_7_);fill:#fefefe}</style><defs><path id="SVGID_1_" d="M0 0h2500v739.5H0z"/></defs><clipPath id="SVGID_2_"><use xlink:href="#SVGID_1_" overflow="visible"/></clipPath><path class="st0" d="M2447.6 441.6c-1.4 7.1-3.9 13.2-7.3 18.5-3.4 5.3-7.8 9.6-13.5 13-5.5 3.2-12.5 5-20.7 5-8 0-15-1.6-20.5-5-5.5-3.2-10.2-7.7-13.7-13-3.4-5.3-5.9-11.4-7.5-18.5-1.6-7.1-2.3-14.3-2.3-21.5 0-7.5.7-15 2.1-21.9 1.4-7.1 3.9-13.4 7.3-18.7 3.4-5.5 7.8-9.8 13.5-13.4 5.5-3.4 12.5-5.2 20.7-5.2 8 0 14.8 1.8 20.3 5.2 5.5 3.4 10.2 8 13.7 13.5 3.6 5.5 6.1 11.9 7.7 18.9 1.6 7.1 2.3 14.2 2.3 21.5s-.6 14.5-2.1 21.6m47.4-57.5c-3.4-11.9-8.4-22.3-15.1-31.3-6.9-8.9-15.5-16.2-25.8-21.5-10.3-5.3-22.8-8.2-37.2-8.2-11.4 0-21.7 2.3-31.2 6.8-9.4 4.5-17.3 11.8-23.3 21.5h-.7V328H2314v247h50.2v-86.7h.7c5.9 8.7 14 15.7 23.5 20.3 9.6 4.6 19.9 6.9 31.3 6.9 13.4 0 25.1-2.7 35.3-7.8 9.8-5 18.4-12.1 25.1-20.8 6.8-8.7 11.8-18.7 15-30.1 3.4-11.4 5-23.1 5-35.4 0-13-1.6-25.5-5-37.4v.1zm-247.7 57.5c-1.4 7.1-3.9 13.2-7.3 18.5-3.4 5.3-7.8 9.6-13.5 13-5.5 3.2-12.5 5-20.7 5-8 0-14.8-1.6-20.5-5-5.5-3.2-10.2-7.7-13.7-13-3.4-5.3-5.9-11.4-7.5-18.5-1.6-7.1-2.4-14.3-2.3-21.5 0-7.5.7-15 2.1-21.9 1.4-7.1 3.9-13.4 7.3-18.7 3.4-5.5 7.8-9.8 13.5-13.4 5.5-3.4 12.5-5.2 20.7-5.2 8 0 14.8 1.8 20.3 5.2 5.5 3.4 10.2 8 13.7 13.5 3.6 5.5 6.1 11.9 7.7 18.9 1.6 7.1 2.3 14.2 2.3 21.5s-.7 14.5-2.1 21.6m32.2-88.8c-6.8-8.9-15.5-16.2-25.8-21.5-10.3-5.3-22.8-8.2-37.2-8.2-11.4 0-21.7 2.3-31.2 6.8-9.4 4.5-17.3 11.8-23.3 21.5h-.7V328h-47.7v247h50.2v-86.7h.7c5.9 8.7 14 15.7 23.5 20.3 9.6 4.6 19.9 6.9 31.3 6.9 13.5 0 25.1-2.7 35.3-7.8 9.8-5 18.4-12.1 25.1-20.8 6.8-8.7 11.8-18.7 15.1-30.1 3.3-11.5 5-23.5 5-35.4 0-13-1.6-25.5-5-37.4-3.4-11.9-8.4-22.3-15.3-31.3v.1zM1949 413.3l32.9-92.8h.7l31.9 92.8H1949zm5.4-155.1l-95.6 252.7h55.9l19.8-56.3h94.6l19.1 56.3h57.7l-94.6-252.7h-57 .1zm-99.7 172.6c-3.4-5.7-7.7-10.7-13.2-14.6-5.3-3.9-11.6-7-18.5-9.4-7-2.3-14.2-4.3-21.4-6.1-7.1-1.6-14.1-3.2-20.8-4.6-6.8-1.4-13-3-18.2-4.8-5.3-1.8-9.6-4.1-12.8-6.9-3.4-2.8-5-6.4-5-11 0-3.7.9-6.8 2.8-9.1 2-2.3 4.3-3.9 6.9-5.2 2.7-1.2 5.7-2 9.1-2.3 3.1-.3 6.2-.5 9.3-.5 8.9 0 16.7 1.8 23.3 5.2 6.6 3.4 10.3 10 10.9 19.6h47.7c-.9-11.4-3.9-20.7-8.7-28.1-4.8-7.5-10.9-13.4-18.2-17.8-7.3-4.5-15.7-7.7-24.9-9.6-9.3-2-18.9-2.8-28.8-2.8-10 0-19.6.9-29 2.7-9.4 1.8-18 4.8-25.5 9.3-7.7 4.5-13.7 10.3-18.2 17.8-4.6 7.5-6.9 17.3-6.9 29 0 8 1.6 14.8 5 20.3 3.2 5.5 7.7 10.2 13 13.9 5.5 3.6 11.6 6.6 18.5 8.9 6.9 2.3 14.1 4.3 21.4 5.9 18 3.7 31.9 7.5 42 11.2 10 3.7 15 9.4 15 16.9 0 4.5-1.1 8.2-3.2 11.2s-4.8 5.4-8 7.1c-3.2 1.8-6.8 3-10.7 3.9-3.7.8-7.4 1.3-11.2 1.2-5 0-9.8-.5-14.2-1.8-4.6-1.2-8.7-3-12.3-5.5-3.6-2.5-6.4-5.7-8.7-9.6-2.3-3.9-3.4-8.5-3.4-13.9h-47.7c.5 12.3 3.2 22.4 8.4 30.6 5 8.2 11.6 14.6 19.4 19.6 7.8 5 16.9 8.5 27.1 10.7 10.2 2.1 20.5 3.2 31.2 3.2 10.3 0 20.7-1.1 30.6-3 10-2 18.9-5.5 26.7-10.5 7.8-5 14.1-11.6 18.9-19.6 4.8-8.2 7.3-18.2 7.3-30.3 0-8.5-1.6-15.7-5-21.4v.2zm-207.9-157.6h-50.2V328h-30.5v33.7h30.5v107.9c0 9.3 1.6 16.6 4.6 22.3 3 5.7 7.3 10 12.6 13.2 5.3 3 11.4 5.2 18.3 6.2 7.3 1.1 14.7 1.6 22.1 1.6 5 0 10-.2 15.3-.4 4.7-.2 9.4-.6 14.1-1.4v-39c-2.5.6-5 .9-7.5 1.1-2.7.2-5.5.3-8.2.4-8.5 0-14.1-1.4-16.9-4.3-2.8-2.8-4.3-8.5-4.3-16.9v-90.6h36.9V328h-36.9l.1-54.8zm-144 167c0 2.8-.4 6.6-.9 11.4-.6 4.9-2.2 9.7-4.8 13.9-2.7 4.6-6.6 8.5-12.1 11.9-5.3 3.4-13.2 5-23 5-3.9 0-7.8-.4-11.8-1.1-3.7-.7-7.1-2-10-3.7-2.8-1.8-5-4.1-6.8-7.3-1.6-3-2.5-6.8-2.5-11.4 0-4.8.9-8.5 2.5-11.8 1.6-3 3.9-5.5 6.6-7.7 2.7-2 5.9-3.6 9.6-4.8s7.3-2.1 11.2-2.9c4-.7 8.1-1.3 12.1-1.8 4.1-.5 7.8-1.1 11.6-1.8 3.7-.7 7.1-1.6 10.3-2.7 3.2-1.1 5.9-2.5 8-4.5v19.3zm50.2 30.1V375c0-11-2.5-19.9-7.5-26.7-5-6.8-11.4-11.9-19.1-15.7-7.8-3.7-16.4-6.2-25.8-7.7-9.3-1.3-18.6-1.9-28-2-10.2 0-20.3 1.1-30.3 3-10 2-19.1 5.3-27.1 10.2-7.9 4.7-14.6 11.1-19.8 18.7-5.2 7.8-8.2 17.6-8.9 29.4h50.2c.9-10 4.3-16.9 10-21.2 5.7-4.3 13.4-6.4 23.3-6.4 4.5 0 8.7.4 12.6.9 3.6.5 7.2 1.7 10.3 3.6 3 1.8 5.3 4.3 7.1 7.5 1.8 3.2 2.7 7.5 2.7 13 .2 5.2-1.2 9.1-4.6 11.9-3.4 2.7-7.8 4.8-13.5 6.2-5.7 1.4-12.1 2.5-19.4 3.2-7.3.7-14.8 1.6-22.3 2.8-7.5 1.2-15 2.8-22.4 4.8-7.5 2-14.1 5-19.8 9.1-5.9 4.1-10.5 9.4-14.2 16-3.7 6.8-5.5 15.3-5.5 25.6 0 9.4 1.6 17.6 4.8 24.4 3 6.6 7.5 12.4 13.2 16.9 5.9 4.6 12.6 8 19.8 10 7.5 2.1 15.7 3.2 24.4 3.2 11.4 0 22.4-1.6 33.3-5 10.7-3.3 20.5-9.2 28.3-17.3.2 3 .7 6 1.2 9.1.5 2.8 1.4 5.9 2.3 8.7h50.9c-2.3-3.7-4.1-9.4-5-16.9-.9-7.9-1.4-15.8-1.4-23.7l.2-.3zm-206.9-126.4c-5-6.4-11.8-11.6-20.3-15.1-8.5-3.7-19.6-5.5-33.1-5.5-9.4 0-19.1 2.5-29 7.3s-18 12.6-24.4 23.1h-1.1v-95.3H1188v252.7h50.2v-96c0-18.7 3-32.1 9.3-40.2 6.1-8.2 16-12.1 29.7-12.1 11.9 0 20.5 3.7 25.1 11.2 4.6 7.5 7.1 18.7 7.1 33.8v103.3h50.2V398.5c0-11.4-1.1-21.7-3-31-2-9.2-5.5-17.2-10.5-23.6m-265.5 88.7h-.7l-43.1-174.2h-52l-43.8 172h-.7l-40.1-172h-55.6l67 252.7h56.3l42-172h.7l42.7 172h55.2l30.3-112.2 37.8-140.5H1122l-41.4 174.2z"/><path class="st1" d="M373.6 663.2c-61.4 0-118.8-18.5-166.7-50L90.5 650.3l37.8-112.5C92 487.9 70.6 426.5 70.6 360.3c0-167 135.9-302.9 302.9-302.9 167 0 302.9 135.9 302.9 302.9 0 167-135.9 302.9-302.9 302.9h.1zm0-663.2C174.7 0 13.4 161.3 13.4 360.3c0 68 18.9 131.8 51.6 186.1L0 739.5l199.4-63.9c53.3 29.5 113.2 44.9 174.2 44.9 198.9 0 360.2-161.3 360.2-360.2C733.8 161.3 572.5 0 373.6 0"/><defs><path id="SVGID_3_" d="M70.7 360.2c0 66.2 21.4 127.7 57.7 177.5L90.6 650.3l116.5-37.2c47.9 31.7 105.1 50 166.7 50 167 0 302.9-135.9 302.9-302.9 0-167-135.9-302.9-302.9-302.9h-.2c-167 0-302.9 135.9-302.9 302.9"/></defs><clipPath id="SVGID_4_"><use xlink:href="#SVGID_3_" overflow="visible"/></clipPath><linearGradient id="SVGID_5_" gradientUnits="userSpaceOnUse" y1="662.108" x2="1" y2="662.108" gradientTransform="rotate(90 8090.744 6999.34) scale(22.2266)"><stop offset="0" stop-color="#6ebf61"/><stop offset=".231" stop-color="#50a557"/><stop offset=".522" stop-color="#2a904f"/><stop offset=".812" stop-color="#50a557"/><stop offset="1" stop-color="#6ebf63"/></linearGradient><path class="st2" d="M70.7 57.3h606v605.8h-606z"/><defs><path id="SVGID_6_" d="M0 0h2500v739.5H0z"/></defs><clipPath id="SVGID_7_"><use xlink:href="#SVGID_6_" overflow="visible"/></clipPath><path class="st3" d="M289 211.2c-5.9-14.1-10.3-14.6-19.2-15-3.4-.2-6.8-.3-10.2-.4-11.6 0-23.7 3.4-31 10.9-8.9 9.1-31 30.3-31 73.7s31.7 85.5 36 91.4c4.5 5.9 61.8 96.3 150.8 133.2 69.6 28.8 90.3 26.2 106.1 22.8 23.1-5 52.2-22.1 59.5-42.7 7.3-20.7 7.3-38.3 5.2-42-2.1-3.7-8-5.9-16.9-10.3-8.9-4.5-52.2-25.8-60.4-28.7-8-3-15.7-2-21.7 6.6-8.5 11.9-16.9 24-23.7 31.3-5.3 5.7-14.1 6.4-21.4 3.4-9.8-4.1-37.2-13.7-71.1-43.8-26.2-23.3-44-52.3-49.1-61.1-5.2-8.9-.5-14.1 3.6-18.9 4.5-5.5 8.7-9.4 13.2-14.6 4.5-5.2 6.9-7.8 9.8-13.9 3-5.9.9-11.9-1.2-16.4-2.2-4.4-20-47.9-27.3-65.5"/></svg>