<?xml version="1.0" encoding="utf-8"?>
<!-- Generator: Adobe Illustrator 20.0.0, SVG Export Plug-In . SVG Version: 6.00 Build 0)  -->
<!DOCTYPE svg PUBLIC "-//W3C//DTD SVG 1.1//EN" "http://www.w3.org/Graphics/SVG/1.1/DTD/svg11.dtd">
<svg version="1.1" id="Layer_1" xmlns="http://www.w3.org/2000/svg" xmlns:xlink="http://www.w3.org/1999/xlink" x="0px" y="0px"
	 viewBox="0 0 329.5 291.4" style="enable-background:new 0 0 329.5 291.4;" xml:space="preserve">
<style type="text/css">
	.st0{fill:#37393D;}
	.st1{fill:#FFFFFF;}
	.st2{fill:#EAEBF5;}
	.st3{fill:#7082AD;}
	.st4{fill:#7C8CB0;}
	.st5{opacity:0.5;fill:#D0D1D0;enable-background:new    ;}
</style>
<path class="st0" d="M320.1,159.6c16.7-16.6,11.5-50.2-17.4-50.2l-76.1,0.1c2.9-16.1,7.1-42.8,6.9-45.3
	c-1.6-23.9-16.8-52.9-17.5-54.1c-2.8-5.2-16.8-12.2-30.9-9.2c-18.3,3.9-20.1,15.5-20,18.7c0,0,0.8,31.8,0.9,40.3
	c-8.7,19.2-38.8,69.5-47.9,73.4c-2.2-1.3-4.7-2-7.2-2H14.7c-8.1,0-14.7,6.6-14.7,14.7l0,132.8c0.6,7.2,6.6,12.8,13.8,12.8h86.3
	c7.7,0,13.9-6.2,13.9-13.9v-4.4c0,0,3.2-0.2,4.7,0.7c5.6,3.5,12.4,8,21.4,8h128.8c48.1,0,43-42.7,38.6-48.6
	c8.1-8.9,13.2-24.5,6.3-36.8C319.1,190.8,328.4,175.5,320.1,159.6z"/>
<path class="st1" d="M300.5,123.2h-90.8c3.5-13.9,10-58.3,10-58.3c-1.5-21.5-15.9-48.6-15.9-48.6c-17.1-7.2-24.8,2.7-24.8,2.7
	s0.9,34.2,0.9,42.1c0,7.9-39.1,71.1-48.7,79.3c-5.1,4.3-14.2,10.2-21.6,14.9v102l5.9,0c6.8,0,15.2,10.6,24.5,10.6l131-0.1
	c26.3,0,30.5-29.7,13.1-32.5l0.8-3.3c16.7-1.8,26.8-28.1,5.5-33.5l0.8-3.3c15.9-1.7,27.7-27.2,5.5-33.6l0.8-3.3
	C318.5,155.1,322.8,123.3,300.5,123.2z"/>
<path class="st2" d="M296.8,161.7l0.8-3.3c20.9-3.3,25.1-35.2,2.9-35.2h-43.9c22.3,0,18,31.9-2.9,35.2l-0.3,1.9
	c22.2,6.3,9.9,33.2-6,34.9l-0.3,2c21.3,5.4,10.7,33.1-6,34.9l-0.3,1.9c17.4,2.8,12.7,33.8-13.6,33.8l-87.4,0c0.1,0,0.2,0,0.3,0
	l131-0.1c26.3,0,30.5-29.7,13.1-32.5l0.8-3.3c16.7-1.8,26.8-28.1,5.5-33.5l0.8-3.3C307.2,193.6,319,168,296.8,161.7z"/>
<rect x="13.9" y="145" class="st3" width="86.5" height="132.6"/>
<path class="st4" d="M13.9,145v132.6h86.5V145H13.9z M94.8,272H19.4V162.1l75.4-0.1V272z"/>
<path class="st5" d="M122.7,260V146.8c-0.2,0.1-12.1,7.9-13.1,8.5v102l5.9,0C117.8,257.4,120.2,258.5,122.7,260z"/>
<g>
	<path class="st2" d="M191.6,13.8C191.6,13.8,191.6,13.8,191.6,13.8c0.1,0.2,10.7,39.6,10.7,45.3c0,5.7-32.3,53.8-27.9,59.8
		c5.9,8.3,35.3,4.3,35.3,4.3c3.5-13.9,10-58.3,10-58.3c-1.5-21.5-15.9-48.6-15.9-48.6C203.2,16.2,198.3,13.8,191.6,13.8z"/>
</g>
</svg>
