<?xml version="1.0" encoding="utf-8"?>
<!-- Generator: Adobe Illustrator 20.0.0, SVG Export Plug-In . SVG Version: 6.00 Build 0)  -->
<!DOCTYPE svg PUBLIC "-//W3C//DTD SVG 1.1//EN" "http://www.w3.org/Graphics/SVG/1.1/DTD/svg11.dtd">
<svg version="1.1" id="Layer_1" xmlns="http://www.w3.org/2000/svg" xmlns:xlink="http://www.w3.org/1999/xlink" x="0px" y="0px"
	 viewBox="0 0 2500 739.5" style="enable-background:new 0 0 2500 739.5;" xml:space="preserve">
<style type="text/css">
	.st0{clip-path:url(#SVGID_2_);fill:#272525;}
	.st1{clip-path:url(#SVGID_2_);fill:#FEFEFE;}
	.st2{clip-path:url(#SVGID_4_);fill:url(#SVGID_5_);}
	.st3{clip-path:url(#SVGID_7_);fill:#FEFEFE;}
</style>
<g>
	<defs>
		<rect id="SVGID_1_" width="2500" height="739.5"/>
	</defs>
	<clipPath id="SVGID_2_">
		<use xlink:href="#SVGID_1_"  style="overflow:visible;"/>
	</clipPath>
	<path class="st0" d="M2447.6,441.6c-1.4,7.1-3.9,13.2-7.3,18.5c-3.4,5.3-7.8,9.6-13.5,13c-5.5,3.2-12.5,5-20.7,5
		c-8,0-15-1.6-20.5-5c-5.5-3.2-10.2-7.7-13.7-13c-3.4-5.3-5.9-11.4-7.5-18.5c-1.6-7.1-2.3-14.3-2.3-21.5c0-7.5,0.7-15,2.1-21.9
		c1.4-7.1,3.9-13.4,7.3-18.7c3.4-5.5,7.8-9.8,13.5-13.4c5.5-3.4,12.5-5.2,20.7-5.2c8,0,14.8,1.8,20.3,5.2c5.5,3.4,10.2,8,13.7,13.5
		c3.6,5.5,6.1,11.9,7.7,18.9c1.6,7.1,2.3,14.2,2.3,21.5S2449.1,434.5,2447.6,441.6 M2495,384.1c-3.4-11.9-8.4-22.3-15.1-31.3
		c-6.9-8.9-15.5-16.2-25.8-21.5c-10.3-5.3-22.8-8.2-37.2-8.2c-11.4,0-21.7,2.3-31.2,6.8c-9.4,4.5-17.3,11.8-23.3,21.5h-0.7V328
		h-47.7v247h50.2v-86.7h0.7c5.9,8.7,14,15.7,23.5,20.3c9.6,4.6,19.9,6.9,31.3,6.9c13.4,0,25.1-2.7,35.3-7.8
		c9.8-5,18.4-12.1,25.1-20.8c6.8-8.7,11.8-18.7,15-30.1c3.4-11.4,5-23.1,5-35.4c0-13-1.6-25.5-5-37.4V384.1z M2247.3,441.6
		c-1.4,7.1-3.9,13.2-7.3,18.5c-3.4,5.3-7.8,9.6-13.5,13c-5.5,3.2-12.5,5-20.7,5c-8,0-14.8-1.6-20.5-5c-5.5-3.2-10.2-7.7-13.7-13
		c-3.4-5.3-5.9-11.4-7.5-18.5c-1.6-7.1-2.4-14.3-2.3-21.5c0-7.5,0.7-15,2.1-21.9c1.4-7.1,3.9-13.4,7.3-18.7
		c3.4-5.5,7.8-9.8,13.5-13.4c5.5-3.4,12.5-5.2,20.7-5.2c8,0,14.8,1.8,20.3,5.2c5.5,3.4,10.2,8,13.7,13.5c3.6,5.5,6.1,11.9,7.7,18.9
		c1.6,7.1,2.3,14.2,2.3,21.5S2248.7,434.5,2247.3,441.6 M2279.5,352.8c-6.8-8.9-15.5-16.2-25.8-21.5c-10.3-5.3-22.8-8.2-37.2-8.2
		c-11.4,0-21.7,2.3-31.2,6.8c-9.4,4.5-17.3,11.8-23.3,21.5h-0.7V328h-47.7v247h50.2v-86.7h0.7c5.9,8.7,14,15.7,23.5,20.3
		c9.6,4.6,19.9,6.9,31.3,6.9c13.5,0,25.1-2.7,35.3-7.8c9.8-5,18.4-12.1,25.1-20.8c6.8-8.7,11.8-18.7,15.1-30.1
		c3.3-11.5,5-23.5,5-35.4c0-13-1.6-25.5-5-37.4c-3.4-11.9-8.4-22.3-15.3-31.3L2279.5,352.8L2279.5,352.8z M1949,413.3l32.9-92.8h0.7
		l31.9,92.8H1949z M1954.4,258.2l-95.6,252.7h55.9l19.8-56.3h94.6l19.1,56.3h57.7l-94.6-252.7h-57H1954.4z M1854.7,430.8
		c-3.4-5.7-7.7-10.7-13.2-14.6c-5.3-3.9-11.6-7-18.5-9.4c-7-2.3-14.2-4.3-21.4-6.1c-7.1-1.6-14.1-3.2-20.8-4.6
		c-6.8-1.4-13-3-18.2-4.8c-5.3-1.8-9.6-4.1-12.8-6.9c-3.4-2.8-5-6.4-5-11c0-3.7,0.9-6.8,2.8-9.1c2-2.3,4.3-3.9,6.9-5.2
		c2.7-1.2,5.7-2,9.1-2.3c3.1-0.3,6.2-0.5,9.3-0.5c8.9,0,16.7,1.8,23.3,5.2c6.6,3.4,10.3,10,10.9,19.6h47.7
		c-0.9-11.4-3.9-20.7-8.7-28.1c-4.8-7.5-10.9-13.4-18.2-17.8c-7.3-4.5-15.7-7.7-24.9-9.6c-9.3-2-18.9-2.8-28.8-2.8
		c-10,0-19.6,0.9-29,2.7c-9.4,1.8-18,4.8-25.5,9.3c-7.7,4.5-13.7,10.3-18.2,17.8c-4.6,7.5-6.9,17.3-6.9,29c0,8,1.6,14.8,5,20.3
		c3.2,5.5,7.7,10.2,13,13.9c5.5,3.6,11.6,6.6,18.5,8.9c6.9,2.3,14.1,4.3,21.4,5.9c18,3.7,31.9,7.5,42,11.2c10,3.7,15,9.4,15,16.9
		c0,4.5-1.1,8.2-3.2,11.2c-2.1,3-4.8,5.4-8,7.1c-3.2,1.8-6.8,3-10.7,3.9c-3.7,0.8-7.4,1.3-11.2,1.2c-5,0-9.8-0.5-14.2-1.8
		c-4.6-1.2-8.7-3-12.3-5.5c-3.6-2.5-6.4-5.7-8.7-9.6c-2.3-3.9-3.4-8.5-3.4-13.9h-47.7c0.5,12.3,3.2,22.4,8.4,30.6
		c5,8.2,11.6,14.6,19.4,19.6c7.8,5,16.9,8.5,27.1,10.7c10.2,2.1,20.5,3.2,31.2,3.2c10.3,0,20.7-1.1,30.6-3c10-2,18.9-5.5,26.7-10.5
		c7.8-5,14.1-11.6,18.9-19.6c4.8-8.2,7.3-18.2,7.3-30.3c0-8.5-1.6-15.7-5-21.4L1854.7,430.8z M1646.8,273.2h-50.2V328h-30.5v33.7
		h30.5v107.9c0,9.3,1.6,16.6,4.6,22.3c3,5.7,7.3,10,12.6,13.2c5.3,3,11.4,5.2,18.3,6.2c7.3,1.1,14.7,1.6,22.1,1.6
		c5,0,10-0.2,15.3-0.4c4.7-0.2,9.4-0.6,14.1-1.4v-39c-2.5,0.6-5,0.9-7.5,1.1c-2.7,0.2-5.5,0.3-8.2,0.4c-8.5,0-14.1-1.4-16.9-4.3
		c-2.8-2.8-4.3-8.5-4.3-16.9v-90.6h36.9V328h-36.9L1646.8,273.2L1646.8,273.2z M1502.8,440.2c0,2.8-0.4,6.6-0.9,11.4
		c-0.6,4.9-2.2,9.7-4.8,13.9c-2.7,4.6-6.6,8.5-12.1,11.9c-5.3,3.4-13.2,5-23,5c-3.9,0-7.8-0.4-11.8-1.1c-3.7-0.7-7.1-2-10-3.7
		c-2.8-1.8-5-4.1-6.8-7.3c-1.6-3-2.5-6.8-2.5-11.4c0-4.8,0.9-8.5,2.5-11.8c1.6-3,3.9-5.5,6.6-7.7c2.7-2,5.9-3.6,9.6-4.8
		s7.3-2.1,11.2-2.9c4-0.7,8.1-1.3,12.1-1.8c4.1-0.5,7.8-1.1,11.6-1.8c3.7-0.7,7.1-1.6,10.3-2.7c3.2-1.1,5.9-2.5,8-4.5v18.7
		L1502.8,440.2z M1553,470.3V375c0-11-2.5-19.9-7.5-26.7c-5-6.8-11.4-11.9-19.1-15.7c-7.8-3.7-16.4-6.2-25.8-7.7
		c-9.3-1.3-18.6-1.9-28-2c-10.2,0-20.3,1.1-30.3,3c-10,2-19.1,5.3-27.1,10.2c-7.9,4.7-14.6,11.1-19.8,18.7
		c-5.2,7.8-8.2,17.6-8.9,29.4h50.2c0.9-10,4.3-16.9,10-21.2c5.7-4.3,13.4-6.4,23.3-6.4c4.5,0,8.7,0.4,12.6,0.9
		c3.6,0.5,7.2,1.7,10.3,3.6c3,1.8,5.3,4.3,7.1,7.5c1.8,3.2,2.7,7.5,2.7,13c0.2,5.2-1.2,9.1-4.6,11.9c-3.4,2.7-7.8,4.8-13.5,6.2
		c-5.7,1.4-12.1,2.5-19.4,3.2c-7.3,0.7-14.8,1.6-22.3,2.8c-7.5,1.2-15,2.8-22.4,4.8c-7.5,2-14.1,5-19.8,9.1
		c-5.9,4.1-10.5,9.4-14.2,16c-3.7,6.8-5.5,15.3-5.5,25.6c0,9.4,1.6,17.6,4.8,24.4c3,6.6,7.5,12.4,13.2,16.9c5.9,4.6,12.6,8,19.8,10
		c7.5,2.1,15.7,3.2,24.4,3.2c11.4,0,22.4-1.6,33.3-5c10.7-3.3,20.5-9.2,28.3-17.3c0.2,3,0.7,6,1.2,9.1c0.5,2.8,1.4,5.9,2.3,8.7h50.9
		c-2.3-3.7-4.1-9.4-5-16.9c-0.9-7.9-1.4-15.8-1.4-23.7L1553,470.3L1553,470.3z M1346.1,343.9c-5-6.4-11.8-11.6-20.3-15.1
		c-8.5-3.7-19.6-5.5-33.1-5.5c-9.4,0-19.1,2.5-29,7.3s-18,12.6-24.4,23.1h-1.1v-95.3h-50.2v252.7h50.2v-96c0-18.7,3-32.1,9.3-40.2
		c6.1-8.2,16-12.1,29.7-12.1c11.9,0,20.5,3.7,25.1,11.2c4.6,7.5,7.1,18.7,7.1,33.8v103.3h50.2V398.5c0-11.4-1.1-21.7-3-31
		C1354.6,358.3,1351.1,350.3,1346.1,343.9 M1080.6,432.6h-0.7l-43.1-174.2h-52l-43.8,172h-0.7l-40.1-172h-55.6l67,252.7h56.3l42-172
		h0.7l42.7,172h55.2l30.3-112.2l37.8-140.5H1122L1080.6,432.6L1080.6,432.6z"/>
	<path class="st1" d="M373.6,663.2c-61.4,0-118.8-18.5-166.7-50L90.5,650.3l37.8-112.5c-36.3-49.9-57.7-111.3-57.7-177.5
		c0-167,135.9-302.9,302.9-302.9c167,0,302.9,135.9,302.9,302.9c0,167-135.9,302.9-302.9,302.9L373.6,663.2L373.6,663.2z M373.6,0
		C174.7,0,13.4,161.3,13.4,360.3c0,68,18.9,131.8,51.6,186.1L0,739.5l199.4-63.9c53.3,29.5,113.2,44.9,174.2,44.9
		c198.9,0,360.2-161.3,360.2-360.2C733.8,161.3,572.5,0,373.6,0"/>
</g>
<g>
	<defs>
		<path id="SVGID_3_" d="M70.7,360.2c0,66.2,21.4,127.7,57.7,177.5L90.6,650.3l116.5-37.2c47.9,31.7,105.1,50,166.7,50
			c167,0,302.9-135.9,302.9-302.9c0-167-135.9-302.9-302.9-302.9h-0.2v0C206.6,57.3,70.7,193.2,70.7,360.2"/>
	</defs>
	<clipPath id="SVGID_4_">
		<use xlink:href="#SVGID_3_"  style="overflow:visible;"/>
	</clipPath>
	
		<linearGradient id="SVGID_5_" gradientUnits="userSpaceOnUse" x1="0" y1="662.108" x2="1" y2="662.108" gradientTransform="matrix(0 22.2266 -22.2266 0 15090.085 -1091.4038)">
		<stop  offset="0" style="stop-color:#6EBF61"/>
		<stop  offset="0.231" style="stop-color:#50A557"/>
		<stop  offset="0.522" style="stop-color:#2A904F"/>
		<stop  offset="0.812" style="stop-color:#50A557"/>
		<stop  offset="1" style="stop-color:#6EBF63"/>
	</linearGradient>
	<rect x="70.7" y="57.3" class="st2" width="606" height="605.8"/>
</g>
<g>
	<defs>
		<rect id="SVGID_6_" width="2500" height="739.5"/>
	</defs>
	<clipPath id="SVGID_7_">
		<use xlink:href="#SVGID_6_"  style="overflow:visible;"/>
	</clipPath>
	<path class="st3" d="M289,211.2c-5.9-14.1-10.3-14.6-19.2-15c-3.4-0.2-6.8-0.3-10.2-0.4c-11.6,0-23.7,3.4-31,10.9
		c-8.9,9.1-31,30.3-31,73.7s31.7,85.5,36,91.4c4.5,5.9,61.8,96.3,150.8,133.2c69.6,28.8,90.3,26.2,106.1,22.8
		c23.1-5,52.2-22.1,59.5-42.7c7.3-20.7,7.3-38.3,5.2-42c-2.1-3.7-8-5.9-16.9-10.3c-8.9-4.5-52.2-25.8-60.4-28.7
		c-8-3-15.7-2-21.7,6.6c-8.5,11.9-16.9,24-23.7,31.3c-5.3,5.7-14.1,6.4-21.4,3.4c-9.8-4.1-37.2-13.7-71.1-43.8
		c-26.2-23.3-44-52.3-49.1-61.1c-5.2-8.9-0.5-14.1,3.6-18.9c4.5-5.5,8.7-9.4,13.2-14.6c4.5-5.2,6.9-7.8,9.8-13.9
		c3-5.9,0.9-11.9-1.2-16.4C314.1,272.3,296.3,228.8,289,211.2"/>
</g>
</svg>
