<?xml version="1.0" encoding="utf-8"?>
<!-- Generator: Adobe Illustrator 21.0.0, SVG Export Plug-In . SVG Version: 6.00 Build 0)  -->
<svg version="1.1" id="Layer_1" xmlns="http://www.w3.org/2000/svg" xmlns:xlink="http://www.w3.org/1999/xlink" x="0px" y="0px"
	 viewBox="0 0 90 90" style="enable-background:new 0 0 90 90;" xml:space="preserve">
<path d="M26.8,59.5L17,19.7c-2.1-6.9-13.7-3.9-13.8-3.9c-1.3,0.3-2.7-0.4-3-1.8c-0.4-1.3,0.4-2.7,1.8-3c5.6-1.5,17-1.9,19.9,7.4
	l0.8,3.2H90l-5.9,25.7c-3.1,10.3-14,12.5-19.4,12.2L26.8,59.5z M23.7,26.5l6.9,28.1l34.1,0c0.6,0,11.8,0.4,14.5-8.5l4.5-19.5H23.7z
	 M34.8,79.8c-4.8,0-8.6-3.9-8.6-8.6c0-4.8,3.9-8.6,8.6-8.6c4.8,0,8.6,3.9,8.6,8.6C43.4,75.9,39.6,79.8,34.8,79.8z M34.8,67.4
	c-2.1,0-3.7,1.7-3.7,3.7c0,2.1,1.7,3.7,3.7,3.7c2.1,0,3.7-1.7,3.7-3.7C38.6,69.1,36.9,67.4,34.8,67.4z M66.8,79.8
	c-4.8,0-8.6-3.9-8.6-8.6c0-4.8,3.9-8.6,8.6-8.6c4.8,0,8.6,3.9,8.6,8.6C75.4,75.9,71.6,79.8,66.8,79.8z M66.8,67.4
	c-2.1,0-3.7,1.7-3.7,3.7c0,2.1,1.7,3.7,3.7,3.7c2.1,0,3.7-1.7,3.7-3.7C70.5,69.1,68.9,67.4,66.8,67.4z"/>
</svg>
