<?xml version="1.0" encoding="utf-8"?>
<!-- Generator: Adobe Illustrator 20.0.0, SVG Export Plug-In . SVG Version: 6.00 Build 0)  -->
<!DOCTYPE svg PUBLIC "-//W3C//DTD SVG 1.1//EN" "http://www.w3.org/Graphics/SVG/1.1/DTD/svg11.dtd">
<svg version="1.1" id="Layer_1" xmlns="http://www.w3.org/2000/svg" xmlns:xlink="http://www.w3.org/1999/xlink" x="0px" y="0px"
	 viewBox="0 0 205.1 47.2" enable-background="new 0 0 205.1 47.2" xml:space="preserve">
<path d="M40.3,6.9c-9.2-9.2-24.2-9.2-33.4,0c0,0,0,0,0,0l0,0c0,0,0,0,0,0L6.6,7.2v0C2.3,11.6,0,17.4,0,23.6c0,6.3,2.5,12.2,6.9,16.7
	c4.5,4.5,10.4,6.9,16.7,6.9l0,0c6.3,0,12.2-2.5,16.7-6.9c0,0,0,0,0,0s0,0,0,0c0,0,0,0,0,0C49.5,31.1,49.5,16.1,40.3,6.9 M38.8,8.4
	c8.4,8.4,8.4,22.1,0,30.5c-7.1,7.1-18.6,7.1-25.7,0c-1.5-1.5-2.7-3.2-3.5-5c0,0,0-0.1,0-0.1c-0.1-0.2-0.2-0.4-0.2-0.5
	c0-0.1-0.1-0.2-0.1-0.3c0-0.1-0.1-0.2-0.1-0.4C9,32.4,8.9,32.2,8.9,32c0-0.1,0-0.1-0.1-0.2c-0.1-0.2-0.1-0.4-0.2-0.6
	c0,0,0-0.1,0-0.1c-0.1-0.3-0.1-0.5-0.2-0.8c0,0,0,0,0,0C7.2,25.5,8,20.3,10.8,16c0,0,0,0,0,0c0.1-0.2,0.3-0.4,0.4-0.6
	c0,0,0.1-0.1,0.1-0.1c0.1-0.2,0.3-0.3,0.4-0.5c0.1-0.1,0.1-0.1,0.2-0.2c0.1-0.2,0.3-0.3,0.4-0.5c0.1-0.1,0.1-0.2,0.2-0.2
	c0.2-0.2,0.4-0.4,0.6-0.7c0.1-0.1,0.3-0.3,0.4-0.4c0,0,0,0,0,0c0.1-0.1,0.2-0.2,0.4-0.3c0,0,0,0,0.1-0.1c0.1-0.1,0.2-0.2,0.3-0.2
	c0,0,0.1-0.1,0.1-0.1c0.1-0.1,0.2-0.1,0.3-0.2c0.1,0,0.1-0.1,0.2-0.1c0.1,0,0.1-0.1,0.2-0.1c0.1-0.1,0.2-0.1,0.3-0.2
	c0,0,0.1-0.1,0.1-0.1c0.1-0.1,0.2-0.1,0.4-0.2c0,0,0.1,0,0.1,0c0.1-0.1,0.3-0.1,0.4-0.2c0,0,0,0,0,0c0.7-0.3,1.4-0.5,2-0.7
	c0,0,0,0,0.1,0c0.2,0,0.3-0.1,0.5-0.1c0.1,0,0.1,0,0.2,0c0.1,0,0.2,0,0.3-0.1c0.2,0,0.3,0,0.5-0.1c0,0,0,0,0,0
	c0.4,0,0.7-0.1,1.1-0.1c3,0,5.9,1.2,8,3.3c1.5,1.5,2.5,3.3,3,5.3c-0.4-0.7-0.9-1.4-1.5-2c-1.9-1.9-4.4-2.9-7.1-2.9
	c-2.7,0-5.2,1-7.1,2.9c-5.2,5.2-5.2,13.8,0,19c2.5,2.5,5.9,3.9,9.5,3.9s7-1.4,9.5-3.9c0.2-0.2,0.5-0.5,0.7-0.8
	c7.2-7.9,6.9-20.2-0.7-27.9c-1.3-1.3-2.8-2.4-4.4-3.3c-0.1,0-0.2-0.1-0.2-0.1c-0.2-0.1-0.3-0.2-0.5-0.3c0,0-0.1,0-0.1-0.1
	C33.4,4.2,36.4,5.9,38.8,8.4 M18,17.9L18,17.9c1.5-1.5,3.5-2.3,5.6-2.3c2.1,0,4.1,0.8,5.7,2.3c3.1,3.1,3.1,8.2,0,11.3
	c-1.5,1.5-3.5,2.3-5.6,2.3c-2.1,0-4.1-0.8-5.6-2.3C14.8,26.1,14.8,21.1,18,17.9 M2.1,23.6c0-5.7,2.2-11.1,6.3-15.2l0,0
	C8.5,8.2,8.7,8,8.9,7.9c0,0,0.1-0.1,0.1-0.1c0.1-0.1,0.3-0.3,0.4-0.4c0.1-0.1,0.2-0.1,0.2-0.2C9.8,7,10,7,10.1,6.9
	c0.1-0.1,0.2-0.2,0.4-0.3c0.1-0.1,0.2-0.1,0.3-0.2c0.2-0.1,0.3-0.2,0.5-0.3c0,0,0.1-0.1,0.1-0.1c0.2-0.1,0.4-0.3,0.6-0.4
	c0,0,0,0,0,0c3.1-1.8,6.6-2.6,10.1-2.5h0c0.2,0,0.5,0,0.7,0.1c0,0,0.1,0,0.1,0c0.3,0,0.5,0.1,0.8,0.1c0,0,0,0,0.1,0
	c0.3,0,0.5,0.1,0.8,0.1c0,0,0,0,0,0c0.3,0.1,0.5,0.1,0.8,0.2c0,0,0,0,0.1,0c0.2,0.1,0.5,0.1,0.7,0.2c0,0,0.1,0,0.1,0
	C26.6,3.9,26.8,3.9,27,4c0.1,0,0.2,0.1,0.2,0.1c0.2,0.1,0.3,0.1,0.5,0.2c0.1,0,0.3,0.1,0.4,0.1c0.1,0,0.2,0.1,0.3,0.1
	c0.2,0.1,0.4,0.2,0.5,0.2c0,0,0.1,0,0.1,0c1.8,0.9,3.5,2.1,5,3.6c6.9,6.9,7.1,17.9,0.6,25c-0.2,0.2-0.4,0.4-0.6,0.7
	c-2.1,2.1-5,3.3-8,3.3c-3,0-5.9-1.2-8-3.3c-1.5-1.5-2.5-3.3-3-5.3c0.4,0.7,0.9,1.4,1.5,2c1.9,1.9,4.4,2.9,7.1,2.9
	c2.7,0,5.2-1,7.1-2.9c0,0,0,0,0,0c0,0,0,0,0,0l0,0c0,0,0,0,0,0c0,0,0.1-0.1,0.1-0.1c0-0.1,0.1-0.1,0.1-0.2c0.1-0.1,0.2-0.2,0.3-0.3
	c0.1-0.1,0.1-0.1,0.1-0.2c0.1-0.1,0.2-0.2,0.3-0.4c0,0,0.1-0.1,0.1-0.1c0.1-0.1,0.2-0.3,0.3-0.4c0,0,0,0,0-0.1
	c3.7-5.2,3.3-12.6-1.4-17.3c-1.6-1.6-3.5-2.7-5.5-3.3c0,0,0,0-0.1,0c-0.2-0.1-0.3-0.1-0.5-0.1c0,0-0.1,0-0.1,0
	c-0.2,0-0.3-0.1-0.5-0.1c0,0-0.1,0-0.1,0c-0.2,0-0.4-0.1-0.6-0.1c0,0,0,0,0,0c-0.9-0.1-1.8-0.2-2.7-0.1c0,0,0,0,0,0
	c-0.2,0-0.4,0-0.6,0c-0.2,0-0.3,0-0.5,0.1c0,0-0.1,0-0.1,0c-1.5,0.2-3,0.7-4.3,1.4c0,0,0,0,0,0c-0.2,0.1-0.3,0.2-0.5,0.3
	c0,0-0.1,0-0.1,0.1c-0.1,0.1-0.3,0.2-0.4,0.2c-0.1,0-0.1,0.1-0.2,0.1c-0.1,0.1-0.2,0.1-0.3,0.2c-0.1,0.1-0.2,0.1-0.2,0.2
	c-0.1,0.1-0.1,0.1-0.2,0.2c-0.1,0.1-0.2,0.2-0.3,0.2c0,0-0.1,0.1-0.1,0.1c-0.1,0.1-0.3,0.2-0.4,0.3c0,0,0,0,0,0
	c-0.1,0.1-0.3,0.3-0.4,0.4c-0.2,0.2-0.5,0.5-0.7,0.7c-0.1,0.1-0.1,0.2-0.2,0.2c-0.2,0.2-0.3,0.4-0.5,0.5c-0.1,0.1-0.1,0.1-0.2,0.2
	C10,13.6,9.8,13.8,9.7,14c0,0-0.1,0.1-0.1,0.1c-0.2,0.2-0.3,0.5-0.5,0.7c0,0,0,0,0,0C6.9,18.1,5.8,22,5.8,26c0,2.3,0.4,4.5,1.1,6.6
	c0,0,0,0,0,0.1c0.1,0.2,0.2,0.5,0.3,0.7c0,0.1,0.1,0.2,0.1,0.2c0.1,0.2,0.1,0.3,0.2,0.5c0.1,0.1,0.1,0.3,0.2,0.4
	c0,0.1,0.1,0.2,0.1,0.3c1,2,2.2,3.8,3.9,5.5c1.6,1.6,3.4,2.9,5.3,3.8c-3.2-1-6.2-2.8-8.6-5.3C4.3,34.8,2.1,29.3,2.1,23.6 M19.4,24.7
	c-0.6,0-1.1-0.5-1.1-1.1c0-0.6,0.5-1.2,1.1-1.2h3.1v-3.1c0-0.6,0.5-1.1,1.1-1.1c0.6,0,1.1,0.5,1.1,1.1v3.1h3.1
	c0.6,0,1.1,0.5,1.1,1.2c0,0.6-0.5,1.1-1.1,1.1h-3.1v3.1c0,0.6-0.5,1.1-1.1,1.1c-0.6,0-1.1-0.5-1.1-1.1v-3.1H19.4 M62.9,23.3
	c0.4-0.3,0.8-0.6,1.2-1.1c0.5-0.7,0.7-1.5,0.7-2.3c0-1.5-0.5-2.6-1.4-3.5c-0.9-0.9-2.2-1.3-3.8-1.3h-6.8v16.8h7
	c1.5,0,2.8-0.4,3.8-1.3c0.9-0.9,1.4-2.1,1.4-3.6C65.1,25.3,64.4,24,62.9,23.3 M56.3,24.9h3.3c0.7,0,1.2,0.2,1.5,0.5
	c0.4,0.4,0.5,0.8,0.5,1.4c0,0.6-0.2,1-0.5,1.4c-0.3,0.4-0.9,0.5-1.5,0.5h-3.3V24.9z M60.9,21.3c-0.3,0.3-0.9,0.5-1.5,0.5h-3v-3.6h3
	c0.6,0,1.2,0.2,1.5,0.5c0.3,0.3,0.5,0.8,0.5,1.3C61.4,20.5,61.2,21,60.9,21.3 M72.9,28.9c1.9,0,2.8-0.6,2.8-1.9c0-0.6-0.1-1-0.4-1.3
	c-0.3-0.3-0.8-0.5-1.4-0.6l-2-0.3c-3-0.4-4.5-2-4.5-4.7c0-1.5,0.5-2.8,1.6-3.7c1.1-0.9,2.5-1.4,4.3-1.4c2.3,0,4.1,0.7,5.4,2l0.1,0.1
	l-2.2,2.2l-0.1-0.1c-0.8-0.7-1.9-1.1-3.3-1.1c-0.8,0-1.4,0.2-1.8,0.6c-0.4,0.4-0.6,0.8-0.6,1.4c0,0.5,0.2,0.8,0.5,1.1
	c0.3,0.3,0.8,0.5,1.4,0.6l2,0.3c1.4,0.2,2.5,0.6,3.2,1.3c0.9,0.8,1.3,2,1.3,3.6c0,1.6-0.6,2.9-1.8,3.8c-1.2,0.9-2.7,1.4-4.5,1.4
	c-2.6,0-4.7-0.7-6.1-2.2l-0.1-0.1l2.3-2.3l0.1,0.1C69.9,28.4,71.2,28.9,72.9,28.9 M88.4,15.1h-6.5v16.8h3.5v-6.2h3.1
	c1.7,0,3.1-0.5,4.1-1.6c1-1,1.5-2.2,1.5-3.7c0-1.5-0.5-2.7-1.5-3.7C91.5,15.6,90.1,15.1,88.4,15.1 M85.4,18.2h2.9
	c0.7,0,1.3,0.2,1.7,0.6s0.6,0.9,0.6,1.6s-0.2,1.2-0.6,1.6c-0.4,0.4-1,0.6-1.7,0.6h-2.9L85.4,18.2L85.4,18.2z M106.2,31.9l-4.2-7.5
	l-2,2.4v5.1h-3.5V15.1h3.5v7l5.7-7h4.2l-5.6,6.7l5.9,10.1L106.2,31.9L106.2,31.9L106.2,31.9z M124.9,31.9h-3.1l-6.4-9.9v9.9H112
	V15.1h3.1l0,0.1l6.3,9.8v-9.9h3.5L124.9,31.9L124.9,31.9z M138,23.5c0.9,0.8,1.4,2,1.4,3.5c0,1.5-0.6,2.8-1.7,3.6
	c-1.1,0.9-2.6,1.3-4.4,1.3c-2.5,0-4.5-0.7-5.9-2.2l-0.1-0.1l1.8-1.8l0.1,0.1c1,1,2.4,1.5,4.2,1.5c1.1,0,1.9-0.2,2.5-0.6
	c0.6-0.4,0.9-1,0.9-1.8c0-0.7-0.2-1.3-0.6-1.6c-0.4-0.3-0.9-0.5-1.8-0.7l-2-0.3c-1.4-0.2-2.5-0.7-3.2-1.4c-0.8-0.8-1.2-1.9-1.2-3.2
	c0-1.5,0.5-2.7,1.5-3.6c1-0.9,2.4-1.4,4.1-1.4c2.1,0,3.9,0.6,5.2,1.9l0.1,0.1l-1.8,1.7l-0.1-0.1c-0.9-0.8-2.1-1.2-3.5-1.2
	c-0.9,0-1.6,0.2-2.1,0.7c-0.5,0.5-0.8,1.1-0.8,1.8c0,0.6,0.2,1.1,0.6,1.5c0.4,0.4,1,0.6,1.8,0.7l1.9,0.3
	C136.2,22.5,137.2,22.9,138,23.5 M145.6,31.9V17.6H141v-2.5h11.9v2.5h-4.6v14.3C148.3,31.9,145.6,31.9,145.6,31.9z M164.6,15.1h2.7
	v11.1c0,1.7-0.6,3.1-1.7,4.2c-1.1,1.1-2.6,1.6-4.3,1.6s-3.2-0.5-4.3-1.6c-1.1-1.1-1.7-2.5-1.7-4.2V15.1h2.7v11
	c0,1.1,0.3,1.9,0.9,2.5c0.6,0.6,1.4,0.9,2.4,0.9c1,0,1.8-0.3,2.4-0.9c0.6-0.6,0.9-1.5,0.9-2.5L164.6,15.1L164.6,15.1z M181.5,30.3
	c0.8-0.8,1.3-1.9,1.5-3.2c0.1-0.7,0.2-1.9,0.2-3.7c0-1.7-0.1-2.9-0.2-3.6c-0.2-1.3-0.7-2.3-1.5-3.1c-1.1-1.1-2.5-1.6-4.4-1.6h-5.9
	v16.8h5.9C179,31.9,180.4,31.3,181.5,30.3 M176.9,17.6c1.2,0,2.1,0.4,2.7,1.1c0.4,0.4,0.6,1,0.7,1.9c0.1,0.5,0.1,1.5,0.1,2.9
	c0,1.4,0,2.4-0.1,3c-0.1,0.9-0.4,1.5-0.7,2c-0.6,0.7-1.6,1.1-2.7,1.1h-2.9V17.6H176.9z M189.4,31.9h-2.7V15.1h2.7V31.9z M203.5,30.2
	c0.8-0.8,1.2-1.7,1.4-2.8c0.1-0.7,0.2-2,0.2-3.9c0-1.9-0.1-3.3-0.2-3.9c-0.2-1.1-0.7-2.1-1.4-2.8c-1.2-1.2-2.7-1.8-4.5-1.8
	c-1.7,0-3.2,0.6-4.4,1.8c-0.8,0.8-1.2,1.7-1.4,2.8c-0.1,0.7-0.2,2-0.2,3.9c0,1.9,0.1,3.2,0.2,3.9c0.2,1.1,0.7,2,1.4,2.8
	c1.2,1.2,2.7,1.8,4.4,1.8C200.8,32,202.3,31.4,203.5,30.2 M202.3,26.2c-0.1,1.1-0.4,1.9-0.9,2.4c-0.6,0.7-1.4,1-2.4,1
	c-1,0-1.8-0.3-2.4-1c-0.5-0.5-0.8-1.3-0.9-2.4c0-0.4-0.1-1.3-0.1-2.7s0-2.3,0.1-2.7c0.1-1.1,0.4-1.9,0.9-2.4c0.6-0.7,1.4-1,2.4-1
	c1,0,1.8,0.3,2.4,1c0.5,0.5,0.8,1.3,0.9,2.4c0,0.4,0.1,1.3,0.1,2.7C202.3,24.9,202.3,25.8,202.3,26.2"/>
</svg>
