<?xml version="1.0" encoding="utf-8"?>
<!-- Generator: Adobe Illustrator 21.0.0, SVG Export Plug-In . SVG Version: 6.00 Build 0)  -->
<svg version="1.1" id="Layer_1" xmlns="http://www.w3.org/2000/svg" xmlns:xlink="http://www.w3.org/1999/xlink" x="0px" y="0px"
	 viewBox="0 0 90 90" style="enable-background:new 0 0 90 90;" xml:space="preserve">
<path d="M83.9,39.9c0-0.2,0-0.3,0-0.3c0-5.2-3.1-8.8-7.8-8.8c-1,0-1.9,0.2-2.8,0.5c0,0,0,0,0,0c-0.7-4.2-4.4-7.4-8.8-7.4
	c-1.2,0-2.5,0.3-3.6,0.7c0,0,0,0,0,0c-1.7-2.2-4.3-3.4-7.1-3.4c-1.6,0-3.1,0.4-4.5,1.2c0,0,0,0,0,0V8.8c0-4.8-4-8.8-8.9-8.8
	s-8.9,3.9-8.9,8.8v30.1c-0.4-0.1-0.8-0.1-1.3-0.1c-4.9,0-8.9,3.9-8.9,8.8v10.1c0,1.5,0.4,3.3,1.2,5c0,0.1,0.1,0.2,0.1,0.3
	c0.5,1.2,1.3,2.3,2,3.1c0,0,0,0,0,0c1.1,1.7,2.6,3.6,4,5.6c1.7,2.2,3.7,4.9,4.8,6.9c0,0,0,0,0,0c-1.3,1.3-2.1,3-2.1,4.7
	c0,3.7,3.2,6.7,7.1,6.7h34.5c3.9,0,7.1-3,7.1-6.7c0-1.9-0.8-3.6-2.3-4.9c0,0,0,0,0,0c1.8-3.5,4.1-9.1,5.4-16.3
	C84.2,54.8,84.6,47,83.9,39.9z M79.3,61.4c-1.2,6.7-3.4,12-5.1,15.3c0,0,0,0,0,0c-0.5-0.1-0.9-0.1-1.4-0.1c-3.5,0-7.1,1.5-7.2,1.6
	l-1,0.4l0.9,0.6c0.1,0.1,0.7,0.4,2.6,0.6l4.7,0.5c1.9,0,3.4,1.4,3.4,3c0,1.7-1.5,3-3.4,3H38.3c-1.9,0-3.4-1.4-3.4-3
	c0-1.7,1.5-3,3.4-3c2.3,0,9.3-1,9.6-1.1l3.1-0.5L48,78c-0.3-0.1-6.2-1.5-9.7-1.5c-0.6,0-1.2,0.1-1.7,0.2c0,0,0,0,0,0
	c-1.2-2.1-3.2-4.8-5.1-7.3c-1.5-2-2.9-3.9-4-5.6c0,0,0,0,0,0c-0.6-0.6-1.1-1.4-1.5-2.3l-0.1-0.2c-0.6-1.3-0.9-2.6-0.9-3.6V47.6
	c0-2.8,2.4-5.1,5.2-5.1c0.4,0,0.8,0,1.2,0.1c0,0,0,0,0,0l0,7.4c0,1,0.7,1.9,1.7,2c1.1,0.1,2-0.8,2-1.8V8.8c0-2.8,2.3-5.1,5.2-5.1
	c2.9,0,5.2,2.3,5.2,5.1l0,25.1c0,1,0.7,1.9,1.7,2c1.1,0.1,2-0.8,2-1.9c-0.1-1.5-0.3-5.5,0-6.4c0,0,0,0,0,0c0.5-1.2,2.5-2.6,4.6-2.6
	c1.9,0,4.1,0.9,4.6,2.7c0.2,0.8,0.1,6.3,0,9.6c0,1,0.8,1.9,1.9,1.9c1,0,1.9-0.8,1.9-1.9c-0.2-3.8-0.3-8.1-0.1-8.9c0,0,0,0,0,0
	c0.6-0.5,1.3-0.6,2.2-0.6h0.2c2.9,0,5.2,2.3,5.2,5.1v7.5c0,1,0.7,1.9,1.7,2c1.1,0.1,2-0.8,2-1.9c0-1.9-0.1-4.7,0-4.9c0,0,0,0,0,0
	c0.2-0.5,1.1-0.8,2.7-0.8c3.7,0,4.1,3.6,4.1,5.2C80.2,39.8,81.4,49.5,79.3,61.4z M46.8,57.9c0.4,1.4,0.6,3.4,0.6,5.3
	c0,1.9-0.3,3.9-0.6,5.3C46.4,70,45.9,71,45.9,71s-0.5-1-0.8-2.4c-0.4-1.4-0.6-3.4-0.6-5.3c0-1.9,0.3-3.9,0.6-5.3
	c0.3-1.4,0.8-2.4,0.8-2.4S46.4,56.5,46.8,57.9z M56,57.9c0.4,1.4,0.6,3.4,0.6,5.3c0,1.9-0.3,3.9-0.6,5.3C55.7,70,55.2,71,55.2,71
	s-0.5-1-0.8-2.4c-0.4-1.4-0.6-3.4-0.6-5.3c0-1.9,0.3-3.9,0.6-5.3c0.3-1.4,0.8-2.4,0.8-2.4S55.7,56.5,56,57.9z M65.3,57.9
	c0.4,1.4,0.6,3.4,0.6,5.3c0,1.9-0.3,3.9-0.6,5.3C64.9,70,64.5,71,64.5,71s-0.5-1-0.8-2.4c-0.4-1.4-0.6-3.4-0.6-5.3
	c0-1.9,0.3-3.9,0.6-5.3c0.4-1.4,0.8-2.4,0.8-2.4S64.9,56.5,65.3,57.9z M21.7,8.1c0.1,1.2-0.8,2.1-2,2.1h-3.8c0,0,0,0,0,0v2.4
	c0,1.1-0.8,1.6-1.7,1L6.5,9.3c-1-0.6-1-1.5,0-2l7.6-4.4c1-0.6,1.7-0.1,1.7,1v2.4c0,0,0,0,0,0l3.7,0C20.6,6.4,21.6,7.1,21.7,8.1z
	 M74.1,9.3l-7.7,4.4c-0.9,0.5-1.7,0.1-1.7-1v-2.5c0,0,0,0,0,0h-3.8c-1.1,0-2.1-1-2-2.1c0.1-1,1.1-1.8,2.1-1.8l3.7,0c0,0,0,0,0,0V3.9
	c0-1.1,0.8-1.6,1.7-1l7.7,4.4C75.1,7.9,75.1,8.8,74.1,9.3z"/>
</svg>
