<?xml version="1.0" encoding="utf-8"?>
<!-- Generator: Adobe Illustrator 21.0.0, SVG Export Plug-In . SVG Version: 6.00 Build 0)  -->
<svg version="1.1" id="Layer_1" xmlns="http://www.w3.org/2000/svg" xmlns:xlink="http://www.w3.org/1999/xlink" x="0px" y="0px"
	 viewBox="0 0 90 90" style="enable-background:new 0 0 90 90;" xml:space="preserve">
<path d="M30,45c0-8.3,6.7-15,15-15s15,6.7,15,15s-6.7,15-15,15S30,53.3,30,45 M21.9,45c0,12.8,10.3,23.1,23.1,23.1
	S68.1,57.8,68.1,45S57.8,21.9,45,21.9S21.9,32.2,21.9,45 M63.6,21c0,3,2.4,5.4,5.4,5.4c3,0,5.4-2.4,5.4-5.4S72,15.6,69,15.6
	S63.6,18,63.6,21 M26.8,81.6c-4.4-0.2-6.8-0.9-8.4-1.5c-2.1-0.8-3.6-1.8-5.2-3.4c-1.6-1.6-2.6-3.1-3.4-5.2c-0.6-1.6-1.3-4-1.5-8.4
	C8.2,58.4,8.1,57,8.1,45s0-13.4,0.3-18.2c0.2-4.4,0.9-6.8,1.5-8.4c0.8-2.1,1.8-3.6,3.4-5.2c1.6-1.6,3.1-2.6,5.2-3.4
	c1.6-0.6,4-1.3,8.4-1.5C31.6,8.1,33,8.1,45,8.1c12,0,13.4,0,18.2,0.3c4.4,0.2,6.8,0.9,8.4,1.5c2.1,0.8,3.6,1.8,5.2,3.4
	c1.6,1.6,2.5,3.1,3.4,5.2c0.6,1.6,1.3,4,1.5,8.4c0.2,4.7,0.3,6.2,0.3,18.2c0,12,0,13.4-0.3,18.2c-0.2,4.4-0.9,6.8-1.5,8.4
	c-0.8,2.1-1.8,3.6-3.4,5.2s-3.1,2.5-5.2,3.4c-1.6,0.6-4,1.3-8.4,1.5c-4.7,0.2-6.2,0.3-18.2,0.3C33,81.9,31.6,81.8,26.8,81.6
	 M26.4,0.3c-4.8,0.2-8.1,1-10.9,2.1c-3,1.1-5.5,2.7-8,5.2c-2.5,2.5-4,5-5.2,8c-1.1,2.9-1.9,6.1-2.1,10.9C0.1,31.2,0,32.8,0,45
	s0.1,13.8,0.3,18.6c0.2,4.8,1,8.1,2.1,10.9c1.1,3,2.7,5.5,5.2,8c2.5,2.5,5,4,8,5.2c2.9,1.1,6.1,1.9,10.9,2.1
	C31.3,89.9,32.8,90,45,90c12.2,0,13.8-0.1,18.6-0.3c4.8-0.2,8.1-1,10.9-2.1c3-1.2,5.5-2.7,8-5.2c2.5-2.5,4-5,5.2-8
	c1.1-2.9,1.9-6.1,2.1-10.9C89.9,58.8,90,57.2,90,45s-0.1-13.8-0.3-18.6c-0.2-4.8-1-8.1-2.1-10.9c-1.2-3-2.7-5.5-5.2-8
	c-2.5-2.5-5-4-8-5.2c-2.9-1.1-6.1-1.9-10.9-2.1C58.8,0.1,57.2,0,45,0C32.8,0,31.3,0,26.4,0.3"/>
</svg>
