<?xml version="1.0" encoding="utf-8"?>
<!-- Generator: Adobe Illustrator 21.0.0, SVG Export Plug-In . SVG Version: 6.00 Build 0)  -->
<svg version="1.1" id="Layer_1" xmlns="http://www.w3.org/2000/svg" xmlns:xlink="http://www.w3.org/1999/xlink" x="0px" y="0px"
	 viewBox="0 0 90 90" style="enable-background:new 0 0 90 90;" xml:space="preserve">
<path d="M0,0v90h90V0H0z M54.5,15.8c-0.7,0-1,0.1-1.7,0.2c-1.6,0.3-2.1,1.3-2.2,3.4c-0.1,1.9-0.1,3.6-0.1,12.7v11.1
	c0,2.6,0.2,5.4,0.2,8.4c0,3.4-0.2,7.2-1.4,10.6c-1.3,3.6-4.4,7.8-10.2,11.3c-0.8,0.5-1.7,1-3,1.6c-0.4,0.2-0.9,0.4-1.2,0.4
	c-0.2,0-0.5-0.2-0.5-0.5c0-0.3,0.3-0.5,1.3-1.1c0.8-0.4,1.7-1.1,2.9-2.3c4.5-4.6,4.5-10.6,4.5-22.3V32c0-9.1,0-10.8-0.1-12.7
	c-0.1-2-0.6-3-2.6-3.4c-0.5-0.1-1.5-0.2-2.3-0.2c-0.7,0-1-0.1-1-0.5c0-0.4,0.4-0.5,1.3-0.5c3.2,0,6.9,0.2,8.5,0.2
	c1.4,0,5.2-0.2,7.5-0.2c0.8,0,1.3,0.1,1.3,0.5C55.6,15.6,55.3,15.8,54.5,15.8z"/>
</svg>
