<?xml version="1.0" encoding="utf-8"?>
<!-- Generator: Adobe Illustrator 21.0.0, SVG Export Plug-In . SVG Version: 6.00 Build 0)  -->
<svg version="1.1" id="Layer_1" xmlns="http://www.w3.org/2000/svg" xmlns:xlink="http://www.w3.org/1999/xlink" x="0px" y="0px"
	 viewBox="0 0 90 90" style="enable-background:new 0 0 90 90;" xml:space="preserve">
<path d="M49.7,85.3L45,90l-4.7-4.7L49.7,85.3z M58.6,32.7V12.3C58.6,5.5,53.1,0,46.4,0h-2.7c-6.8,0-12.3,5.5-12.3,12.3v20.4
	c0,6.8,5.5,12.3,12.3,12.3h2.7C53.1,44.9,58.6,39.4,58.6,32.7z M46.4,2.7c5.3,0,9.5,4.3,9.5,9.5v20.4c0,5.3-4.3,9.5-9.5,9.5h-2.7
	c-5.3,0-9.5-4.3-9.5-9.5V12.3c0-5.3,4.3-9.5,9.5-9.5H46.4z M46.4,14.7V8.4C46.4,7.6,45.8,7,45,7s-1.4,0.6-1.4,1.4v6.4
	c0,0.8,0.6,1.4,1.4,1.4S46.4,15.5,46.4,14.7z M49.1,52.8c0-2.3-1.8-4.1-4.1-4.1s-4.1,1.8-4.1,4.1c0,2.3,1.8,4.1,4.1,4.1
	S49.1,55.1,49.1,52.8z M46.4,52.8c0,0.7-0.6,1.4-1.4,1.4s-1.4-0.6-1.4-1.4s0.6-1.4,1.4-1.4S46.4,52.1,46.4,52.8z M49.1,63.4
	c0-2.3-1.8-4.1-4.1-4.1s-4.1,1.8-4.1,4.1s1.8,4.1,4.1,4.1S49.1,65.6,49.1,63.4z M46.4,63.4c0,0.7-0.6,1.4-1.4,1.4s-1.4-0.6-1.4-1.4
	c0-0.7,0.6-1.4,1.4-1.4S46.4,62.6,46.4,63.4z M49.1,73.9c0-2.3-1.8-4.1-4.1-4.1s-4.1,1.8-4.1,4.1S42.7,78,45,78S49.1,76.2,49.1,73.9
	z M46.4,73.9c0,0.7-0.6,1.4-1.4,1.4s-1.4-0.6-1.4-1.4s0.6-1.4,1.4-1.4S46.4,73.2,46.4,73.9z"/>
</svg>
