<?xml version="1.0" encoding="utf-8"?>
<!-- Generator: Adobe Illustrator 21.0.0, SVG Export Plug-In . SVG Version: 6.00 Build 0)  -->
<svg version="1.1" id="Layer_1" xmlns="http://www.w3.org/2000/svg" xmlns:xlink="http://www.w3.org/1999/xlink" x="0px" y="0px"
	 viewBox="0 0 90 90" style="enable-background:new 0 0 90 90;" xml:space="preserve">
<path d="M58.2,13.1L58.2,13.1l3.7,0l1.3,0.3c0.9,0.2,1.7,0.4,2.4,0.7c0.7,0.3,1.4,0.6,2.1,1c0.7,0.4,1.3,0.8,1.9,1.2
	c0.6,0.4,1,0.8,1.5,1.2c0.4,0.4,1.1,0.6,2,0.3s1.9-0.5,3-0.9c1.1-0.4,2.1-0.8,3.2-1.3c1-0.5,1.7-0.8,1.9-0.9
	c0.2-0.1,0.3-0.2,0.4-0.2l0,0l0.1,0l0.1,0l0.1,0l0.1,0l0,0l0,0l0,0l0,0l0.1,0l0.1,0l0,0.1l0,0.1l0,0.1l0,0.1l0,0.1l0,0.1l0,0.1
	c0,0.1,0,0.2-0.1,0.3c0,0.1-0.2,0.6-0.7,1.4c-0.4,0.8-1,1.7-1.6,2.5s-1.2,1.5-1.7,1.9c-0.5,0.4-0.8,0.7-1,0.9
	c-0.2,0.2-0.4,0.3-0.6,0.5l-0.4,0.2l-0.1,0l-0.1,0l0,0l0,0l0,0l0,0l-0.1,0l-0.1,0l0,0l0,0l0,0l0,0l0,0l0,0l0,0l0,0h0.4l2-0.4
	c1.3-0.3,2.6-0.6,3.8-1l1.9-0.6l0.2-0.1l0.1,0l0.1,0l0.1,0l0.1,0l0.1,0l0.1,0l0.1,0v0.1l0,0l0,0l0,0l0,0l0,0l0,0l0,0l0,0l0,0l0,0
	l0,0l0,0l0,0.1l0,0.1l0,0c0,0-0.3,0.4-0.9,1.2c-0.6,0.8-0.9,1.2-1,1.2c0,0-0.1,0.1-0.2,0.2c-0.1,0.1-0.6,0.7-1.5,1.6
	c-0.9,0.9-1.8,1.7-2.7,2.5c-0.9,0.7-1.3,1.6-1.3,2.7c0,1-0.1,2.2-0.2,3.6c-0.1,1.3-0.3,2.8-0.5,4.3c-0.3,1.5-0.7,3.3-1.2,5.2
	c-0.5,1.9-1.2,3.8-2,5.7c-0.8,1.8-1.6,3.5-2.4,5s-1.6,2.7-2.3,3.7c-0.7,1-1.4,2-2.2,2.9c-0.7,0.9-1.7,1.9-2.8,3
	c-1.1,1.1-1.7,1.7-1.8,1.8c-0.1,0.1-0.6,0.5-1.4,1.2c-0.8,0.7-1.7,1.4-2.6,2c-0.9,0.7-1.8,1.2-2.6,1.7c-0.8,0.4-1.7,1-2.8,1.5
	c-1.1,0.6-2.3,1.1-3.6,1.6c-1.3,0.5-2.6,1-4,1.4s-2.8,0.8-4.1,1c-1.3,0.2-2.8,0.4-4.5,0.6l-2.5,0.2v0h-4.6v0l-0.6,0
	c-0.4,0-0.7,0-1-0.1c-0.3,0-1.2-0.2-2.9-0.4c-1.7-0.2-3-0.5-4-0.7c-1-0.2-2.4-0.7-4.3-1.3s-3.6-1.3-4.9-2c-1.4-0.7-2.2-1.1-2.6-1.3
	c-0.3-0.2-0.7-0.4-1.1-0.7L6,70l0,0l0,0l0,0l0,0l-0.1,0l-0.1,0l0,0l0,0l0,0l0,0l0,0l0,0h0v-0.1l0.1,0l0.1,0l0.3,0
	c0.2,0,0.8,0.1,1.7,0.1c0.9,0,2,0,3,0s2.2-0.2,3.3-0.3c1.1-0.2,2.4-0.4,3.9-0.9c1.5-0.4,2.9-0.9,4.2-1.4c1.3-0.6,2.2-1,2.7-1.2
	c0.5-0.3,1.3-0.8,2.4-1.5l1.6-1.1l0,0l0,0l0,0l0,0l0,0l0,0l0,0l0,0l0.1,0l0.1,0l0-0.1l0-0.1l0,0l0,0l-0.6,0c-0.4,0-0.7,0-1.1-0.1
	c-0.4,0-0.9-0.1-1.7-0.3c-0.8-0.2-1.6-0.5-2.4-0.9c-0.9-0.4-1.7-0.8-2.6-1.3c-0.8-0.5-1.4-1-1.8-1.3c-0.4-0.3-0.8-0.8-1.4-1.4
	c-0.6-0.6-1.1-1.3-1.5-1.9c-0.4-0.7-0.8-1.4-1.2-2.3l-0.6-1.3l0-0.1l0-0.1l0-0.1l0-0.1l0.1,0l0.1,0l0.8,0.1c0.5,0.1,1.3,0.1,2.4,0.1
	c1.1,0,1.9-0.1,2.3-0.1c0.4-0.1,0.7-0.1,0.8-0.1l0.1,0l0.2,0l0.2,0l0,0l0,0l0,0l0,0l-0.1,0l-0.1,0l-0.1,0l-0.1,0l-0.1,0
	c-0.1,0-0.3-0.1-0.5-0.1c-0.2-0.1-0.9-0.3-1.9-0.8c-1-0.4-1.9-0.9-2.5-1.3c-0.6-0.4-1.2-0.9-1.8-1.4c-0.6-0.5-1.2-1.2-1.8-2
	c-0.7-0.8-1.3-1.7-1.8-2.8c-0.5-1.1-0.9-2.1-1.2-3c-0.3-1-0.4-1.9-0.5-2.9l-0.1-1.5l0.1,0l0.1,0l0.1,0l0.1,0l0.1,0l0.1,0l1.1,0.5
	c0.7,0.3,1.6,0.6,2.7,0.9c1.1,0.2,1.7,0.4,2,0.4l0.3,0h0.6l0,0l0,0l0,0l0,0l0,0l0,0l0,0l0,0l-0.1,0l-0.1,0l0,0l0,0l0,0l0,0l-0.1,0
	l-0.1,0l0,0c0,0-0.2-0.2-0.6-0.5c-0.4-0.3-0.8-0.7-1.2-1.2c-0.4-0.5-0.9-1-1.3-1.5c-0.4-0.5-0.8-1.1-1.1-1.7c-0.3-0.6-0.7-1.3-1-2.3
	c-0.4-0.9-0.6-1.8-0.8-2.7c-0.2-0.9-0.3-1.8-0.3-2.7c0-0.9,0-1.7,0.1-2.3s0.2-1.4,0.4-2.2c0.2-0.8,0.5-1.7,0.9-2.6l0.6-1.3l0-0.1
	l0-0.1l0,0l0,0l0,0l0,0l0,0l0,0l0,0l0,0l0,0l0,0l0,0l0,0l0,0.1l0,0.1l0,0l0,0l1,1.1c0.6,0.7,1.4,1.5,2.3,2.4
	c0.9,0.9,1.4,1.3,1.5,1.4c0.1,0,0.2,0.1,0.4,0.3c0.1,0.2,0.6,0.6,1.4,1.3c0.8,0.7,1.9,1.4,3.2,2.3c1.3,0.9,2.7,1.7,4.3,2.6
	c1.6,0.9,3.3,1.6,5.1,2.3c1.8,0.7,3.1,1.1,3.8,1.3c0.7,0.2,2,0.5,3.8,0.8c1.8,0.3,3.1,0.5,4,0.6c0.9,0.1,1.5,0.1,1.8,0.2l0.5,0
	l0-0.1l0-0.1l-0.1-0.9c-0.1-0.6-0.1-1.4-0.1-2.5c0-1.1,0.1-2,0.2-2.9c0.2-0.9,0.4-1.8,0.7-2.7c0.3-0.9,0.7-1.7,1-2.2
	c0.3-0.6,0.7-1.2,1.3-1.9c0.5-0.7,1.2-1.4,2-2.2c0.8-0.8,1.8-1.4,2.8-2c1.1-0.6,2-1,2.9-1.3c0.9-0.3,1.7-0.5,2.3-0.6
	C57.9,13.1,58.2,13.1,58.2,13.1z"/>
</svg>
